<?xml version="1.0" encoding="UTF-8" standalone="no"?>
<!DOCTYPE svg PUBLIC "-//W3C//DTD SVG 1.1//EN" "http://www.w3.org/Graphics/SVG/1.1/DTD/svg11.dtd">
<svg width="160" height="200" viewBox="0 0 100 124" version="1.1" xmlns="http://www.w3.org/2000/svg" xmlns:xlink="http://www.w3.org/1999/xlink" xml:space="preserve" xmlns:serif="http://www.serif.com/" style="fill-rule:evenodd;clip-rule:evenodd;stroke-linejoin:round;stroke-miterlimit:2;">
    <g id="Light" transform="matrix(0.106762,0,0,0.106762,0,0)">
        <rect x="0" y="0" width="936.667" height="1152.56" style="fill:none;"/>
        <g>
            <g transform="matrix(0.999964,0,0,0.999964,-209.326,-58.8327)">
                <path d="M585.135,1207.36C584.781,1207 573.131,1206.68 559.246,1206.63C470.356,1206.35 339.77,1196.64 321.079,1188.92L316.667,1187.09L324.029,1184.93C338.282,1180.75 366.082,1177.51 419,1173.86L432,1172.97L432,1169.94C432,1168.28 429.807,1164.31 427.127,1161.13C404.209,1133.88 389.134,1103.76 388.858,1084.65L388.757,1077.68L400.379,1065.33C416.769,1047.92 416.62,1047.41 394.585,1045.49C377.757,1044.02 368.895,1041.72 368.339,1038.67L367.975,1036.67L376.988,1033.03C392.817,1026.63 423.353,1004.55 439.571,987.765L445.143,982L451.445,962.502C461.393,931.726 460.681,931.706 422.423,961.667C387.308,989.167 388,988.657 388,987.038C388,986.331 393.495,968.408 400.211,947.209C406.928,926.011 412.693,906.717 413.024,904.333L413.625,900L410.839,900C407.797,900 404.522,902.848 363.327,941.333C348.02,955.633 332.76,969.884 329.416,973.002C321.26,980.604 321.319,979.951 331.139,953.924C335.826,941.499 343.677,920.302 348.584,906.82L357.507,882.307L356.24,881.04C353.356,878.156 347.887,882.022 315.282,910C296.48,926.133 279.264,940.826 277.024,942.651L272.952,945.969L273.999,942.671C274.574,940.857 279.506,928.864 284.958,916.02C290.41,903.175 297.006,887.567 299.616,881.333C302.226,875.1 306.113,865.925 308.253,860.945L312.145,851.89L311.251,848.945C310.759,847.325 308.896,844.05 307.111,841.667L303.864,837.333L300.932,837.334C299.319,837.335 288.1,843.199 276,850.367C243.452,869.646 241.333,870.848 241.333,870.027C241.333,867.589 276.742,802.08 299.562,762.298C304.936,752.929 309.333,744.079 309.333,742.632L309.333,740L305.901,740C304.013,740 283.342,749.729 259.966,761.62C236.589,773.511 217.119,782.897 216.699,782.476C215.821,781.599 267.975,726.002 325,667.023L364,626.688L364,621.333L360.079,621.333C357.923,621.333 352.073,622.771 347.079,624.529C320.978,633.716 219.651,666.762 219.143,666.254C217.862,664.973 260.088,630.531 351.047,558.667L377.205,538L377.269,535.745C377.382,531.779 375.222,531.791 346.351,535.909C308.466,541.313 250.747,548.939 240,549.961L231.333,550.785L234,548.558C238.778,544.567 316.896,507.322 389.333,474.498C443.194,450.092 442.466,450.447 443.346,448.152C443.786,447.007 443.234,445.404 442.12,444.59L440.096,443.109L431.715,444.1C427.105,444.645 411.333,445.775 396.667,446.61C368.541,448.211 328.197,451.746 289.333,456.015C276.5,457.424 260.427,458.877 253.615,459.244L241.231,459.911L241.993,458.678C242.412,458.001 257.585,449.824 275.711,440.507C393.748,379.84 390.098,382.467 365.78,375.666C291.768,354.967 264.672,346.883 265.736,345.819C267.398,344.158 372.02,335.866 414,334.069C424.267,333.629 436.117,332.925 440.333,332.504L448,331.738L447.974,326L404.32,304.069C338.3,270.901 306.853,254.036 308.309,252.579C308.888,252.001 325.374,254.017 412.943,265.373C440.961,269.007 468.261,272.134 473.609,272.323L483.333,272.667L483.731,269.884L484.129,267.101L468.319,251.859C459.624,243.476 435.892,221.68 415.583,203.425C395.273,185.169 378.897,169.992 379.192,169.697C379.74,169.149 389.26,172.434 418.667,183.317C427.833,186.709 441.033,191.518 448,194.003C454.967,196.488 463.067,199.413 466,200.504C487.806,208.609 506.652,214.651 510.151,214.658L514.302,214.667L520.484,208.058C528.693,199.282 531.487,205.543 494.478,149.794C482.115,131.171 472,115.634 472,115.266C472,113.914 480.017,118.853 509.333,138.266C578.718,184.213 574.495,181.941 580.26,176.418C584.266,172.58 584.867,169.073 582.543,163.087C579.239,154.579 560,91.375 560,89.03C560,87.46 577.918,103.58 601.952,126.773C632.705,156.45 634.488,157.702 638.721,152.602L640.434,150.537L638.147,132.269C635.115,108.057 630.726,71.588 630.693,70.334C630.552,64.983 642.531,83.677 661.108,117.801C672.321,138.397 672.641,138.679 681.284,135.609C684.67,134.407 690.891,133.017 695.108,132.522L702.776,131.62L703.89,129.477C704.503,128.298 705.414,123.134 705.916,118C707.513,101.655 712.086,71.61 713.308,69.434L714.487,67.334L715.196,69.334C715.586,70.434 718.623,85.434 721.946,102.667C725.269,119.9 728.287,135.291 728.653,136.869L729.318,139.737L736.639,143.869C740.665,146.141 745.095,148 746.483,148L749.006,148L758.745,134.375C772.122,115.659 785.526,98.415 786.184,99.073C786.484,99.374 783.716,115.615 780.032,135.165C776.348,154.715 773.333,172.267 773.333,174.17L773.333,177.628L783.559,188.481C789.184,194.45 798.304,205.034 803.828,212C809.351,218.967 820.847,231.803 829.376,240.524L844.882,256.381L864.775,254.186C875.715,252.979 889.767,251.686 896,251.313C947.8,248.217 960.705,247.777 980,248.452C1020.56,249.87 1038.54,255.191 1031.41,263.663C1019.32,278.039 975.478,298.02 892.041,327.187C882.896,330.384 874.827,333.931 874.109,335.07L872.803,337.14L882.897,358.237C888.449,369.84 894.119,382.188 895.496,385.676L898,392.018L903.333,393.989C919.531,399.975 962.025,410.566 978.298,412.673L985.264,413.574L993.632,410.832C1034.92,397.298 1065.33,408.559 1065.33,437.384C1065.33,478.66 1021.57,535.538 968.939,562.661L956.711,568.963L950.957,578.705C935.027,605.677 911.444,628.443 885.613,641.784C879.022,645.188 873.252,648.956 872.791,650.156L871.954,652.34L878.333,662.268L884.713,672.197L894.023,676.316L903.333,680.435L924.667,684.659L946,688.883L947.333,698L976.903,697.648L984.384,695.473C993.185,692.915 992.716,693.506 995.947,680.876C999.497,666.993 1005.32,656.209 1014.62,646.257L1022.61,637.725L1030.97,633.885L1039.33,630.045L1048.67,630.179C1058.87,630.326 1068.25,633.183 1072.91,637.562L1075.89,640.366L1081.61,639.256C1084.76,638.646 1092.73,638.12 1099.33,638.086L1111.33,638.026L1119.73,642.565C1137.36,652.098 1143.16,666.689 1137.33,686.825L1135.54,692.982L1138.44,699.143L1141.33,705.305L1141.33,713.12C1141.33,722.144 1139.51,728.291 1135.11,734.126L1132,738.252L1132,753.234L1129.17,760.792C1124.05,774.492 1112.59,784.028 1097.88,786.848C1093.55,787.678 1085.54,790.523 1080.09,793.169L1070.18,797.98L1060.09,797.882C1054.54,797.828 1046.03,796.989 1041.18,796.017L1032.37,794.25L1022.52,800.386C1006.75,810.208 973.212,820 955.338,820L949.693,820L946.356,822.625C944.521,824.068 940.27,825.985 936.908,826.884L930.797,828.519L920.503,826.092L910.209,823.665L908.374,826.166C907.365,827.542 906.869,829.867 907.272,831.334C908.538,835.941 909.781,900.29 908.761,908.415L907.788,916.162L899.561,922.228C895.036,925.564 886.165,930.893 879.848,934.069L868.363,939.845L859.507,952.923C854.637,960.115 846.173,970.949 840.7,976.997L830.748,987.994L831.639,990.331C832.129,991.616 835.071,995.792 838.178,999.612C846.703,1010.09 854.605,1022.07 861.305,1034.67L867.333,1046L869.947,1046C872.753,1046 873.346,1045.2 886.667,1023.33C915.691,975.695 947.151,943.92 976,933.105L987.333,928.856L1018,928.667L1026.39,932.541L1034.78,936.414L1041.12,943.357C1069.36,974.256 1020.97,1043.82 897.333,1150.02C873.598,1170.41 873.398,1169.9 906,1171.99C969.406,1176.04 1021.66,1182.08 1028.17,1186.11C1040.03,1193.43 940.168,1203.29 820,1206.65C772.186,1207.99 586.324,1208.55 585.135,1207.36ZM776,1166.67L776,1160.11L765,1149.56C703.4,1090.46 655.141,1064.15 632.955,1077.58C616.902,1087.29 593.26,1098.7 572.332,1106.84L557.33,1112.67L557.665,1115.2C558.074,1118.29 559.003,1118.76 573.673,1123.26L585.345,1126.84L593.642,1132.42C603.854,1139.29 609.967,1147.15 612.818,1157.09C614.015,1161.26 615.255,1165.12 615.575,1165.67C615.895,1166.22 652.122,1166.67 696.079,1166.67L776,1166.67Z"/>
            </g>
            <g transform="matrix(0.999964,0,0,0.999964,0,0)">
                <g transform="matrix(1,0,0,1,-209.333,-58.8348)">
                    <path d="M529.466,312.193C557.695,298.672 578.082,289.706 598,282.054C606.8,278.673 616.1,275.044 618.667,273.991C623.853,271.861 681.094,254.676 706,247.77L722,243.333L723.059,234.739L724.118,226.145L727.649,219.657C732.251,211.201 736.812,206.371 739.674,206.922C743.664,207.69 743.059,211.909 738.186,217.303C732.888,223.167 729.892,231.4 731.184,236.546L732.051,240L734.359,239.965C735.628,239.945 746.867,237.289 759.333,234.062L782,228.196L782.441,226.045C783.353,221.601 738.654,172.897 722.562,160.8L714.653,154.855L700.132,151.605L692.65,153.108C688.535,153.934 677.255,158.2 667.584,162.588C657.913,166.975 638.3,174.546 624,179.412C583.773,193.101 548.52,211.748 528.339,230.011L520.154,237.418L516.863,244.376C513.181,252.163 512.318,256.122 506.042,294C500.312,328.585 498.378,327.083 529.466,312.193Z" style="fill:rgb(102,102,102);"/>
                </g>
                <g transform="matrix(1,0,0,1,-209.333,-58.8348)">
                    <path d="M427.483,401.521C462.822,392.643 534.646,376.48 585.333,366C616.013,359.657 687.845,344.348 698,341.989C702.4,340.967 719.8,337.051 736.667,333.288C788.334,321.761 839.033,308.676 878.442,296.699C906.494,288.173 955.733,270.089 958.619,267.252L960.571,265.333L958.619,263.429L956.667,261.525L936,262.712C924.633,263.365 909.633,264.536 902.667,265.314C828.922,273.546 829.939,273.626 817.333,258.599L807.333,246.679L804.124,246.673C796.637,246.659 719.141,268.259 676.667,282.199C558.93,320.84 355.57,407.808 366.768,414.729C368.668,415.904 380.355,413.361 427.483,401.521Z" style="fill:rgb(102,102,102);"/>
                </g>
            </g>
            <g transform="matrix(0.999964,0,0,0.999964,-209.326,-58.8327)">
                <path d="M562.222,276.444C560.044,274.266 561.714,267.702 566.108,261.173L570.883,254.077L570.189,250.705C569.807,248.851 569.089,245.683 568.592,243.667L567.689,240L569.699,240C570.804,240 574.324,241.187 577.521,242.637L583.333,245.275L598.371,245.333L601.236,243L604.1,240.667L604.241,231.999L604.382,223.332L600.858,216.377C593.328,201.518 602.686,198.563 610.55,213.316C615.152,221.951 616.243,222.654 625.109,222.696C639.111,222.762 655.883,238.392 646.015,242.179L644.03,242.94L637.682,237.661C634.19,234.757 629.1,231.654 626.371,230.766L621.409,229.152L617.705,230.916L614,232.681L612.829,240.047L611.657,247.412L615.162,254.328C619.734,263.35 619.711,263.391 612.489,259.159L606.311,255.538L595.848,254.933L585.384,254.327L582.008,256.539C580.151,257.756 575.852,262.932 572.454,268.042C566.676,276.731 564.388,278.61 562.222,276.444Z"/>
            </g>
            <g transform="matrix(0.999964,0,0,0.999964,-209.326,-58.8327)">
                <path d="M669.927,235.892C668.421,235.122 665.721,232.078 663.927,229.127L660.667,223.763L653.264,219.996C649.193,217.924 642.743,213.763 638.931,210.75L632,205.271L632,200L634.872,200C636.451,200 641.569,202.139 646.245,204.754C650.921,207.369 656.078,209.319 657.706,209.088L660.667,208.667L660.483,201.667L660.3,194.667L662.567,194.667C663.814,194.667 666.546,196.453 668.637,198.636L672.44,202.606L670.636,210.128L668.831,217.651L670.791,221.159L672.751,224.667L676.309,225.082C681.288,225.664 684.621,223.528 687.192,218.109L689.399,213.459L687.795,201.412C686.912,194.786 686.512,189.044 686.904,188.651C688.372,187.184 692.037,189.745 694.75,194.135C698.051,199.476 702.108,200.831 708.489,198.725C717.455,195.766 717.844,191.525 709.952,182.789L705.51,177.872L707.708,174.315L712.419,175.199L717.13,176.083L721.166,180.679C723.386,183.208 725.6,187.399 726.087,189.994L726.972,194.711L725.351,198.624C723.329,203.504 718.842,206.498 709.371,209.284L702,211.452L700.667,214.629C693.414,231.911 680.123,241.104 669.927,235.892Z"/>
            </g>
            <g transform="matrix(0.999964,0,0,0.999964,0,0)">
                <g transform="matrix(1,0,0,1,-209.333,-58.8348)">
                    <path d="M1103.08,770.996C1087.75,779.977 1061.31,767.939 1061.36,752C1061.39,740.171 1063.44,738.924 1076.48,742.819L1086,745.665L1098.92,744.963L1111.85,744.26L1114.13,745.927L1116.4,747.594L1114.88,758.981L1110.96,763.824C1108.81,766.487 1105.26,769.715 1103.08,770.996ZM988.667,795.515L975.333,798.874L956.476,799.616L937.619,800.358L934.052,794L933.556,776.106C933.059,758.156 934.69,736.938 937.714,722L939.333,714L980.667,712.647L994.827,708.154L1008.99,703.662L1010.27,679.221L1014.5,670.354L1018.73,661.488L1024.19,656.816C1047.93,636.492 1074.76,648.83 1074.6,680L1074.55,690L1070,703.287L1064.67,706.288C1061.73,707.939 1057.19,709.299 1054.57,709.311L1049.8,709.333L1046.99,706.333C1045.45,704.683 1041.92,698.313 1039.16,692.178L1034.14,681.022L1033.17,683.511C1029.82,692.028 1033.23,704.247 1041.8,714.459C1048.35,722.26 1047.61,724.267 1035.67,731.004L1030.67,733.824L1030.67,738.832L1039.67,738.416L1048.67,738L1048.31,740.667C1048.11,742.133 1047.87,746.633 1047.77,750.667L1047.59,758L1050.42,763.538C1051.98,766.583 1055.43,770.867 1058.09,773.058L1062.92,777.04L1062.45,779.52L1061.98,782L1055.99,782.456C1052.69,782.707 1046.1,782.244 1041.33,781.426L1032.67,779.94L1017.33,786.048C1008.9,789.407 996,793.668 988.667,795.515ZM1112.48,730.484C1109.65,731.413 1102.23,732.442 1096,732.772L1084.67,733.371L1077.67,730.592L1070.67,727.814L1070.67,725.463C1070.67,724.171 1073.07,721.181 1076.01,718.82C1078.95,716.459 1082.55,712.182 1084.01,709.315C1085.47,706.448 1087.98,702.879 1089.59,701.384L1092.5,698.667L1108.67,698.693L1115.66,701.947L1122.65,705.201L1124.84,709.793L1127.03,714.385L1126.1,718.062C1124.89,722.907 1118.88,728.385 1112.48,730.484ZM1116.41,682.828L1111.94,685.59L1101.61,686.298L1091.28,687.006L1089.82,685.17C1089.02,684.16 1088.02,677.838 1087.61,671.121L1086.86,658.909L1089.41,656.593C1095.81,650.81 1111.63,653.051 1119.42,660.844L1124,665.422L1124,669.315C1124,675.124 1121.41,679.736 1116.41,682.828Z" style="fill:rgb(183,183,183);"/>
                </g>
                <g transform="matrix(1,0,0,1,-209.333,-58.8348)">
                    <path d="M399.253,866.333L403.573,862L407.854,849.126C412.276,835.832 418.414,824.943 422.813,822.588C425.917,820.927 425.942,821.672 423.054,829.73L420.761,836.127L422.183,838.397C426.092,844.634 437.199,839 443.445,827.611L447.255,820.667L447.283,799.333L444.143,792.332L441.004,785.331L432.41,777.292L423.816,769.252L428.483,760.906C436.347,746.844 451.549,734.254 462.728,732.543C465.994,732.043 469.717,731.095 471,730.437L473.333,729.239L473.333,722.667C473.333,712.919 468.882,691.726 463.314,674.964L458.399,660.171L452.866,651.752L447.332,643.333L441.314,643.522C433.502,643.767 413.482,651.326 401.551,658.535C373.853,675.27 357.397,698.962 341.754,744.624L338.114,755.248L331.751,762.275C324.234,770.575 318.079,782.206 315.147,793.652L313.033,801.903L313.822,808.618C315.037,818.945 318.373,828.78 322.21,833.34L325.687,837.472L328.51,837.069L331.333,836.667L331.723,833.333C331.938,831.5 332.807,826.7 333.655,822.667L335.197,815.333L336.111,824.792C338.149,845.896 355.873,866.459 363.797,856.911L365.253,855.156L363.835,850.018C362.58,845.474 363.346,829.568 364.752,830.974C365.044,831.267 366.166,836.117 367.244,841.753L369.205,851.999L373.227,857.846C375.44,861.062 379.115,865.262 381.394,867.18L385.538,870.667L394.933,870.667L399.253,866.333Z" style="fill:rgb(183,183,183);"/>
                </g>
                <g transform="matrix(1,0,0,1,-209.333,-58.8348)">
                    <path d="M806.635,714.333C819.983,685.276 836.004,647.936 835.696,646.599C835.488,645.692 839.882,643.459 846,641.361C878.711,630.144 906.817,610.763 926.891,585.579C938.869,570.553 938.023,568.856 919.215,570.178L906.28,571.087L904.14,573.781C882.457,601.073 850.123,609.147 820.512,594.664L812.357,590.675L798.326,576.152C783.923,561.245 775.744,549.324 770.547,535.667L767.63,528L764.647,528C763.007,528 758.343,529.469 754.282,531.265L746.9,534.53L746.188,532.675C743.856,526.599 751.75,515.025 761.558,510.138L768.524,506.667L778.262,506.667C789.409,506.667 790.232,507.818 782.667,512.825C779.733,514.766 777.333,517.432 777.333,518.749L777.333,521.144L787.287,527.348C804.431,538.033 833.722,547.871 861.333,552.216L872.667,554L922,553.837L934.667,550.732C971.007,541.825 1023.33,507.4 1023.33,492.398L1023.33,490L1016.2,489.129C992.04,486.181 973.466,460.864 977.855,436.867C979.05,430.33 977.517,429.354 962.811,427.29C944.448,424.713 911.7,417.894 896.819,413.549L884.667,410L872.667,386.107L860.667,362.214L850.142,348.345C844.353,340.718 838.245,333.578 836.568,332.479L833.519,330.481L810.426,336.565C756.753,350.703 682.042,369.222 650.867,376.116L637.067,379.167L635.343,381.917C633.701,384.536 630.516,400.545 628.618,415.716L627.736,422.766L622.964,416.641C613.22,404.133 598.31,394.868 582.989,391.8L574.645,390.129L565.872,391.631C549.07,394.509 535.375,404.438 528.985,418.374L526.1,424.667L526.062,448.667L529.605,456.292C540.433,479.597 563.729,496.272 595.301,503.316L599.268,504.202L595.967,506.714C587.947,512.819 563.865,526.227 551.501,531.471L538,537.198L537.589,539.818L537.178,542.438L539.589,543.175C544.312,544.62 590.077,551.995 594.333,551.998C599.788,552.001 599.763,552.444 593.466,567.182C588.366,579.119 587.524,581.767 587.842,584.883C588.144,587.847 630.435,610.853 668.502,628.761C699.262,643.232 719.295,654.055 738,666.307L751.333,675.041L774.883,698.854C787.836,711.951 799.417,722.667 800.62,722.667L802.807,722.667L806.635,714.333Z" style="fill:rgb(183,183,183);"/>
                </g>
                <g transform="matrix(1,0,0,1,-209.333,-58.8348)">
                    <path d="M802.792,1129.67C815.096,1113.63 850.668,1070.77 853.905,1068.08C865.923,1058.11 809.125,989.009 763.928,958.618L751.566,950.306L734.116,951.951C724.519,952.855 708.267,954.092 698,954.7L679.333,955.804L654.865,954.523C610.44,952.197 569.657,942.821 529.472,925.697L518.276,920.926L516.258,922.2C515.148,922.9 511.538,928.119 508.236,933.798L502.232,944.124L504.554,948.994C521.576,984.689 559.819,1012.7 636.246,1045.45C699.576,1072.59 734.504,1094.6 773.559,1131.97L786,1143.88L791.797,1144L802.792,1129.67Z" style="fill:rgb(183,183,183);"/>
                </g>
                <g transform="matrix(1,0,0,1,-209.333,-58.8348)">
                    <path d="M528.738,1104.85C512.619,1110.3 514.633,1110.31 502.905,1104.69C485.529,1096.36 471.058,1083.79 459.86,1067.29L454.539,1059.45L454.936,1055.66L455.334,1051.86L468.664,1045.82C488.816,1036.7 503.499,1027.5 523.062,1011.73L526.789,1008.72L529.956,1010.69C531.697,1011.78 538.794,1017.03 545.725,1022.35C560.263,1033.53 574.458,1042.25 595.661,1053.04L610.655,1060.67L610.643,1066L602.988,1070.87C583.785,1083.08 557.342,1095.19 528.738,1104.85ZM827.552,971.667C824.429,974.92 820.879,977.333 819.219,977.333L816.327,977.333L803.497,963.966L790.667,950.599L790.667,944.289L797.616,942.545L800.995,944.939C802.853,946.256 805.139,947.898 806.075,948.589L807.776,949.845L823.554,948.456C839.894,947.017 842.667,947.216 842.667,949.827C842.667,952.247 833.551,965.418 827.552,971.667Z" style="fill:rgb(183,183,183);"/>
                </g>
            </g>
            <g transform="matrix(0.999964,0,0,0.999964,-209.326,-58.8327)">
                <path d="M684.309,719C676.741,727.735 683.077,731.98 627.806,681.148C567.666,625.838 560.425,616.307 568.708,603.359C574.503,594.299 574.444,594.299 589.62,603.535C596.429,607.68 611.9,615.846 624,621.684C686.406,651.79 725.333,672.725 725.333,676.182C725.333,676.926 717.337,685.44 707.565,695.101C697.792,704.762 687.327,715.517 684.309,719ZM743.401,934.162C664.071,944.746 576.295,929.873 505,893.767L488,885.158L488,881.466C488,877.201 499.01,843.572 510.784,811.869C515.252,799.841 520.762,784.987 523.029,778.861L527.151,767.722L529.909,766.584C531.426,765.958 539.251,762.923 547.299,759.838L561.931,754.231L568.098,747.9C573.252,742.608 580.872,732 579.519,732C579.304,732 571.797,734.696 562.837,737.991C553.878,741.286 543.424,744.528 539.607,745.197C535.79,745.865 527.947,747.372 522.178,748.546C516.41,749.72 506.51,750.828 500.178,751.007L488.667,751.333L488.304,706L486.063,693.333C481.703,668.692 469.379,640.337 459.446,632.093C458.284,631.129 457.333,628.963 457.333,627.28L457.333,624.221L464.333,622.718C477.664,619.857 516.234,616.122 533.5,616.021L537,616L562.167,641.457C576.008,655.459 601.433,679.994 618.667,695.98C635.9,711.966 655.298,730.81 661.773,737.856C675.669,752.977 674.08,752.59 682.9,743C696.179,728.561 728.663,695.782 733.647,691.794L738.627,687.808L741.232,688.634C747.928,690.76 780.239,726.166 788.776,740.733L792.026,746.279L788.47,755.473L784.913,764.667L784.305,781.477C783.496,803.82 785.739,835.291 791.369,880.607C796.868,924.871 796.783,922.435 792.884,923.917C786.738,926.254 757.857,932.234 743.401,934.162ZM915.579,779.333L915.333,802L911.333,802.208C909.133,802.323 906.323,802.137 905.088,801.794L902.844,801.172L900.699,791.586C899.519,786.314 895.843,772.206 892.53,760.235C889.217,748.264 886.693,737.164 886.92,735.568L887.333,732.667L893.333,732C896.633,731.633 899.248,730.733 899.143,730C899.038,729.267 898.55,723.867 898.057,718C897.564,712.133 896.262,703.801 895.163,699.484L893.166,691.634L894.42,690.38L895.675,689.125L909.291,693.794C916.779,696.361 923.193,698.749 923.544,699.1C923.895,699.45 922.978,706.546 921.506,714.869C917.349,738.376 915.845,754.736 915.579,779.333ZM834,930.608C822.845,932.208 813.713,932.378 812.902,931C811.415,928.473 802.107,862.436 797.946,824.893L795.754,805.12L796.248,786.227L796.741,767.333L820.522,715.333C849.25,652.518 848.841,653.333 851.606,653.333C852.825,653.333 856.677,656.294 860.164,659.912L866.505,666.49L871.831,677.578C876.754,687.826 881.333,702.098 881.333,707.192L881.333,709.333L877.667,709.311C874.769,709.293 860.918,704.258 849.856,699.202L848.378,698.526L849.014,705.147L849.65,711.768L841.102,720.884C833.11,729.408 825.123,739.608 819.511,748.459L817.107,752.251L820.22,751.303C826.783,749.305 839.678,740.465 847.79,732.404L856.247,724L862.605,724L864.627,727.086C870.473,736.007 878.603,769.314 888.611,825.333C891.25,840.107 893.186,864.92 893.295,885.359L893.42,908.717L886.377,912.974C872.168,921.561 853.678,927.786 834,930.608Z" style="fill:rgb(25,169,206);"/>
                <clipPath id="_clip1">
                    <path d="M684.309,719C676.741,727.735 683.077,731.98 627.806,681.148C567.666,625.838 560.425,616.307 568.708,603.359C574.503,594.299 574.444,594.299 589.62,603.535C596.429,607.68 611.9,615.846 624,621.684C686.406,651.79 725.333,672.725 725.333,676.182C725.333,676.926 717.337,685.44 707.565,695.101C697.792,704.762 687.327,715.517 684.309,719ZM743.401,934.162C664.071,944.746 576.295,929.873 505,893.767L488,885.158L488,881.466C488,877.201 499.01,843.572 510.784,811.869C515.252,799.841 520.762,784.987 523.029,778.861L527.151,767.722L529.909,766.584C531.426,765.958 539.251,762.923 547.299,759.838L561.931,754.231L568.098,747.9C573.252,742.608 580.872,732 579.519,732C579.304,732 571.797,734.696 562.837,737.991C553.878,741.286 543.424,744.528 539.607,745.197C535.79,745.865 527.947,747.372 522.178,748.546C516.41,749.72 506.51,750.828 500.178,751.007L488.667,751.333L488.304,706L486.063,693.333C481.703,668.692 469.379,640.337 459.446,632.093C458.284,631.129 457.333,628.963 457.333,627.28L457.333,624.221L464.333,622.718C477.664,619.857 516.234,616.122 533.5,616.021L537,616L562.167,641.457C576.008,655.459 601.433,679.994 618.667,695.98C635.9,711.966 655.298,730.81 661.773,737.856C675.669,752.977 674.08,752.59 682.9,743C696.179,728.561 728.663,695.782 733.647,691.794L738.627,687.808L741.232,688.634C747.928,690.76 780.239,726.166 788.776,740.733L792.026,746.279L788.47,755.473L784.913,764.667L784.305,781.477C783.496,803.82 785.739,835.291 791.369,880.607C796.868,924.871 796.783,922.435 792.884,923.917C786.738,926.254 757.857,932.234 743.401,934.162ZM915.579,779.333L915.333,802L911.333,802.208C909.133,802.323 906.323,802.137 905.088,801.794L902.844,801.172L900.699,791.586C899.519,786.314 895.843,772.206 892.53,760.235C889.217,748.264 886.693,737.164 886.92,735.568L887.333,732.667L893.333,732C896.633,731.633 899.248,730.733 899.143,730C899.038,729.267 898.55,723.867 898.057,718C897.564,712.133 896.262,703.801 895.163,699.484L893.166,691.634L894.42,690.38L895.675,689.125L909.291,693.794C916.779,696.361 923.193,698.749 923.544,699.1C923.895,699.45 922.978,706.546 921.506,714.869C917.349,738.376 915.845,754.736 915.579,779.333ZM834,930.608C822.845,932.208 813.713,932.378 812.902,931C811.415,928.473 802.107,862.436 797.946,824.893L795.754,805.12L796.248,786.227L796.741,767.333L820.522,715.333C849.25,652.518 848.841,653.333 851.606,653.333C852.825,653.333 856.677,656.294 860.164,659.912L866.505,666.49L871.831,677.578C876.754,687.826 881.333,702.098 881.333,707.192L881.333,709.333L877.667,709.311C874.769,709.293 860.918,704.258 849.856,699.202L848.378,698.526L849.014,705.147L849.65,711.768L841.102,720.884C833.11,729.408 825.123,739.608 819.511,748.459L817.107,752.251L820.22,751.303C826.783,749.305 839.678,740.465 847.79,732.404L856.247,724L862.605,724L864.627,727.086C870.473,736.007 878.603,769.314 888.611,825.333C891.25,840.107 893.186,864.92 893.295,885.359L893.42,908.717L886.377,912.974C872.168,921.561 853.678,927.786 834,930.608Z"/>
                </clipPath>
                <g clip-path="url(#_clip1)">
                    <g transform="matrix(1,0,0,1,209.333,58.8348)">
                        <g transform="matrix(0.377698,0,0,0.377698,296.4,747.709)">
                            <path d="M255.413,147.195C250.369,144.383 240.01,137.929 231.775,130.997C240.19,125.561 249.818,120.508 251.853,119.605C254.381,118.483 255.521,115.524 254.4,112.996C253.277,110.467 250.319,109.326 247.791,110.449C244.777,111.787 230.552,119.316 220.896,126.286L203.68,126.286C198.011,126.286 192.404,125.105 187.217,122.818C172.782,116.453 164.132,101.472 165.838,85.788C166.464,80.028 168.321,74.47 171.282,69.49L176.986,59.896C191.02,58.026 204.546,52.827 216.206,44.791C218.393,43.284 219.27,40.353 217.957,38.043C216.481,35.447 213.137,34.729 210.74,36.392C204.74,40.557 195.606,45.612 183.788,48.456L192.241,34.239C193.578,31.991 193.132,29.005 191.023,27.457C188.604,25.682 185.244,26.409 183.745,28.928L162.201,65.161C159.375,69.914 155.619,74.047 151.157,77.313C138.428,86.631 121.129,86.631 108.4,77.313C103.79,73.938 99.954,69.616 97.152,64.636L86.467,45.651C88.342,34.01 85.874,13.511 83.586,5.675C82.83,3.088 80.2,1.388 77.577,2.008C74.742,2.678 73.098,5.583 73.926,8.33C75.908,14.904 77.669,30.973 76.942,40.868C69.47,38.762 62.201,35.662 57.778,32.644C55.648,31.191 52.703,31.407 51.009,33.351C49.012,35.644 49.492,39.092 51.922,40.774C57.922,44.928 71.12,49.873 78.263,51.498L88.625,69.909C91.38,74.803 93.113,80.206 93.721,85.789C95.427,101.472 86.777,116.454 72.342,122.819C67.155,125.106 61.548,126.287 55.879,126.287L43.376,126.287C34.993,114.301 32.277,110.191 32.25,110.149C30.727,107.84 27.622,107.2 25.312,108.722C23.002,110.244 22.363,113.349 23.884,115.658C23.979,115.802 25.815,118.582 31.165,126.286L7.224,126.286C4.608,126.286 2.272,128.198 2.024,130.803C1.739,133.79 4.08,136.303 7.009,136.303L29.778,136.303C24.367,141.968 17.367,148.438 11.161,152.917C9.162,154.36 8.552,157.064 9.791,159.196L9.884,159.356C11.392,161.953 14.774,162.668 17.175,160.922C26.669,154.018 37.474,143.277 43.189,136.303L55.892,136.303C61.557,136.303 67.161,137.483 72.344,139.769C86.778,146.133 95.428,161.114 93.722,176.797C93.113,182.395 91.38,187.813 88.626,192.726L78.702,210.426C62.486,212.68 47.446,222.239 46.78,222.667C44.453,224.163 43.822,227.234 45.274,229.588C47.157,232.642 50.848,231.909 52.195,231.094C52.976,230.622 61.302,225.303 72.162,222.092L70.216,225.673C68.896,228.053 69.716,231.052 72.063,232.43C74.488,233.854 77.61,233.005 78.98,230.549L86.195,217.543L97.193,197.926C99.98,192.955 103.803,188.639 108.401,185.273C121.13,175.954 138.429,175.954 151.158,185.273C156.472,189.163 160.791,194.253 163.765,200.128L179.077,230.379C180.329,232.846 183.344,233.83 185.81,232.578C188.276,231.326 189.261,228.312 188.009,225.845L179.139,208.262C186.313,209.871 196.112,213.015 203.305,218.706C205.579,220.505 208.848,219.635 210.345,217.931C212.17,215.852 211.729,212.62 209.57,210.891C197.507,201.22 180.188,197.969 173.438,197.029L169.612,189.492C167.598,185.523 166.319,181.222 165.837,176.798C164.131,161.115 172.78,146.134 187.215,139.77C192.399,137.484 198.002,136.304 203.668,136.304L222.626,136.304C231.856,144.643 244.636,152.637 250.534,155.945C252.904,157.274 256.104,156.161 257.348,154.009C258.733,151.614 257.829,148.542 255.413,147.195ZM113.085,145.207C103.865,145.207 96.39,138.978 96.39,131.295C96.39,123.612 103.864,117.383 113.085,117.383C122.305,117.383 129.78,123.612 129.78,131.295C129.78,138.978 122.305,145.207 113.085,145.207Z" style="fill:rgb(13,242,40);fill-rule:nonzero;"/>
                        </g>
                        <g transform="matrix(-0.303048,0.225428,-0.225428,-0.303048,702.302,827.069)">
                            <path d="M255.413,147.195C250.369,144.383 240.01,137.929 231.775,130.997C240.19,125.561 249.818,120.508 251.853,119.605C254.381,118.483 255.521,115.524 254.4,112.996C253.277,110.467 250.319,109.326 247.791,110.449C244.777,111.787 230.552,119.316 220.896,126.286L203.68,126.286C198.011,126.286 192.404,125.105 187.217,122.818C172.782,116.453 164.132,101.472 165.838,85.788C166.464,80.028 168.321,74.47 171.282,69.49L176.986,59.896C191.02,58.026 204.546,52.827 216.206,44.791C218.393,43.284 219.27,40.353 217.957,38.043C216.481,35.447 213.137,34.729 210.74,36.392C204.74,40.557 195.606,45.612 183.788,48.456L192.241,34.239C193.578,31.991 193.132,29.005 191.023,27.457C188.604,25.682 185.244,26.409 183.745,28.928L162.201,65.161C159.375,69.914 155.619,74.047 151.157,77.313C138.428,86.631 121.129,86.631 108.4,77.313C103.79,73.938 99.954,69.616 97.152,64.636L86.467,45.651C88.342,34.01 85.874,13.511 83.586,5.675C82.83,3.088 80.2,1.388 77.577,2.008C74.742,2.678 73.098,5.583 73.926,8.33C75.908,14.904 77.669,30.973 76.942,40.868C69.47,38.762 62.201,35.662 57.778,32.644C55.648,31.191 52.703,31.407 51.009,33.351C49.012,35.644 49.492,39.092 51.922,40.774C57.922,44.928 71.12,49.873 78.263,51.498L88.625,69.909C91.38,74.803 93.113,80.206 93.721,85.789C95.427,101.472 86.777,116.454 72.342,122.819C67.155,125.106 61.548,126.287 55.879,126.287L43.376,126.287C34.993,114.301 32.277,110.191 32.25,110.149C30.727,107.84 27.622,107.2 25.312,108.722C23.002,110.244 22.363,113.349 23.884,115.658C23.979,115.802 25.815,118.582 31.165,126.286L7.224,126.286C4.608,126.286 2.272,128.198 2.024,130.803C1.739,133.79 4.08,136.303 7.009,136.303L29.778,136.303C24.367,141.968 17.367,148.438 11.161,152.917C9.162,154.36 8.552,157.064 9.791,159.196L9.884,159.356C11.392,161.953 14.774,162.668 17.175,160.922C26.669,154.018 37.474,143.277 43.189,136.303L55.892,136.303C61.557,136.303 67.161,137.483 72.344,139.769C86.778,146.133 95.428,161.114 93.722,176.797C93.113,182.395 91.38,187.813 88.626,192.726L78.702,210.426C62.486,212.68 47.446,222.239 46.78,222.667C44.453,224.163 43.822,227.234 45.274,229.588C47.157,232.642 50.848,231.909 52.195,231.094C52.976,230.622 61.302,225.303 72.162,222.092L70.216,225.673C68.896,228.053 69.716,231.052 72.063,232.43C74.488,233.854 77.61,233.005 78.98,230.549L86.195,217.543L97.193,197.926C99.98,192.955 103.803,188.639 108.401,185.273C121.13,175.954 138.429,175.954 151.158,185.273C156.472,189.163 160.791,194.253 163.765,200.128L179.077,230.379C180.329,232.846 183.344,233.83 185.81,232.578C188.276,231.326 189.261,228.312 188.009,225.845L179.139,208.262C186.313,209.871 196.112,213.015 203.305,218.706C205.579,220.505 208.848,219.635 210.345,217.931C212.17,215.852 211.729,212.62 209.57,210.891C197.507,201.22 180.188,197.969 173.438,197.029L169.612,189.492C167.598,185.523 166.319,181.222 165.837,176.798C164.131,161.115 172.78,146.134 187.215,139.77C192.399,137.484 198.002,136.304 203.668,136.304L222.626,136.304C231.856,144.643 244.636,152.637 250.534,155.945C252.904,157.274 256.104,156.161 257.348,154.009C258.733,151.614 257.829,148.542 255.413,147.195ZM113.085,145.207C103.865,145.207 96.39,138.978 96.39,131.295C96.39,123.612 103.864,117.383 113.085,117.383C122.305,117.383 129.78,123.612 129.78,131.295C129.78,138.978 122.305,145.207 113.085,145.207Z" style="fill:rgb(242,13,13);fill-rule:nonzero;"/>
                        </g>
                        <g transform="matrix(-0.316093,0.235131,-0.237912,-0.319832,722.239,692.597)">
                            <path d="M255.413,147.195C250.369,144.383 240.01,137.929 231.775,130.997C240.19,125.561 249.818,120.508 251.853,119.605C254.381,118.483 255.521,115.524 254.4,112.996C253.277,110.467 250.319,109.326 247.791,110.449C244.777,111.787 230.552,119.316 220.896,126.286L203.68,126.286C198.011,126.286 192.404,125.105 187.217,122.818C172.782,116.453 164.132,101.472 165.838,85.788C166.464,80.028 168.321,74.47 171.282,69.49L176.986,59.896C191.02,58.026 204.546,52.827 216.206,44.791C218.393,43.284 219.27,40.353 217.957,38.043C216.481,35.447 213.137,34.729 210.74,36.392C204.74,40.557 195.606,45.612 183.788,48.456L192.241,34.239C193.578,31.991 193.132,29.005 191.023,27.457C188.604,25.682 185.244,26.409 183.745,28.928L162.201,65.161C159.375,69.914 155.619,74.047 151.157,77.313C138.428,86.631 121.129,86.631 108.4,77.313C103.79,73.938 99.954,69.616 97.152,64.636L86.467,45.651C88.342,34.01 85.874,13.511 83.586,5.675C82.83,3.088 80.2,1.388 77.577,2.008C74.742,2.678 73.098,5.583 73.926,8.33C75.908,14.904 77.669,30.973 76.942,40.868C69.47,38.762 62.201,35.662 57.778,32.644C55.648,31.191 52.703,31.407 51.009,33.351C49.012,35.644 49.492,39.092 51.922,40.774C57.922,44.928 71.12,49.873 78.263,51.498L88.625,69.909C91.38,74.803 93.113,80.206 93.721,85.789C95.427,101.472 86.777,116.454 72.342,122.819C67.155,125.106 61.548,126.287 55.879,126.287L43.376,126.287C34.993,114.301 32.277,110.191 32.25,110.149C30.727,107.84 27.622,107.2 25.312,108.722C23.002,110.244 22.363,113.349 23.884,115.658C23.979,115.802 25.815,118.582 31.165,126.286L7.224,126.286C4.608,126.286 2.272,128.198 2.024,130.803C1.739,133.79 4.08,136.303 7.009,136.303L29.778,136.303C24.367,141.968 17.367,148.438 11.161,152.917C9.162,154.36 8.552,157.064 9.791,159.196L9.884,159.356C11.392,161.953 14.774,162.668 17.175,160.922C26.669,154.018 37.474,143.277 43.189,136.303L55.892,136.303C61.557,136.303 67.161,137.483 72.344,139.769C86.778,146.133 95.428,161.114 93.722,176.797C93.113,182.395 91.38,187.813 88.626,192.726L78.702,210.426C62.486,212.68 47.446,222.239 46.78,222.667C44.453,224.163 43.822,227.234 45.274,229.588C47.157,232.642 50.848,231.909 52.195,231.094C52.976,230.622 61.302,225.303 72.162,222.092L70.216,225.673C68.896,228.053 69.716,231.052 72.063,232.43C74.488,233.854 77.61,233.005 78.98,230.549L86.195,217.543L97.193,197.926C99.98,192.955 103.803,188.639 108.401,185.273C121.13,175.954 138.429,175.954 151.158,185.273C156.472,189.163 160.791,194.253 163.765,200.128L179.077,230.379C180.329,232.846 183.344,233.83 185.81,232.578C188.276,231.326 189.261,228.312 188.009,225.845L179.139,208.262C186.313,209.871 196.112,213.015 203.305,218.706C205.579,220.505 208.848,219.635 210.345,217.931C212.17,215.852 211.729,212.62 209.57,210.891C197.507,201.22 180.188,197.969 173.438,197.029L169.612,189.492C167.598,185.523 166.319,181.222 165.837,176.798C164.131,161.115 172.78,146.134 187.215,139.77C192.399,137.484 198.002,136.304 203.668,136.304L222.626,136.304C231.856,144.643 244.636,152.637 250.534,155.945C252.904,157.274 256.104,156.161 257.348,154.009C258.733,151.614 257.829,148.542 255.413,147.195ZM113.085,145.207C103.865,145.207 96.39,138.978 96.39,131.295C96.39,123.612 103.864,117.383 113.085,117.383C122.305,117.383 129.78,123.612 129.78,131.295C129.78,138.978 122.305,145.207 113.085,145.207Z" style="fill:rgb(229,242,13);fill-rule:nonzero;"/>
                        </g>
                        <g transform="matrix(0.142144,0.34993,-0.34993,0.142144,559.139,595.896)">
                            <path d="M255.413,147.195C250.369,144.383 240.01,137.929 231.775,130.997C240.19,125.561 249.818,120.508 251.853,119.605C254.381,118.483 255.521,115.524 254.4,112.996C253.277,110.467 250.319,109.326 247.791,110.449C244.777,111.787 230.552,119.316 220.896,126.286L203.68,126.286C198.011,126.286 192.404,125.105 187.217,122.818C172.782,116.453 164.132,101.472 165.838,85.788C166.464,80.028 168.321,74.47 171.282,69.49L176.986,59.896C191.02,58.026 204.546,52.827 216.206,44.791C218.393,43.284 219.27,40.353 217.957,38.043C216.481,35.447 213.137,34.729 210.74,36.392C204.74,40.557 195.606,45.612 183.788,48.456L192.241,34.239C193.578,31.991 193.132,29.005 191.023,27.457C188.604,25.682 185.244,26.409 183.745,28.928L162.201,65.161C159.375,69.914 155.619,74.047 151.157,77.313C138.428,86.631 121.129,86.631 108.4,77.313C103.79,73.938 99.954,69.616 97.152,64.636L86.467,45.651C88.342,34.01 85.874,13.511 83.586,5.675C82.83,3.088 80.2,1.388 77.577,2.008C74.742,2.678 73.098,5.583 73.926,8.33C75.908,14.904 77.669,30.973 76.942,40.868C69.47,38.762 62.201,35.662 57.778,32.644C55.648,31.191 52.703,31.407 51.009,33.351C49.012,35.644 49.492,39.092 51.922,40.774C57.922,44.928 71.12,49.873 78.263,51.498L88.625,69.909C91.38,74.803 93.113,80.206 93.721,85.789C95.427,101.472 86.777,116.454 72.342,122.819C67.155,125.106 61.548,126.287 55.879,126.287L43.376,126.287C34.993,114.301 32.277,110.191 32.25,110.149C30.727,107.84 27.622,107.2 25.312,108.722C23.002,110.244 22.363,113.349 23.884,115.658C23.979,115.802 25.815,118.582 31.165,126.286L7.224,126.286C4.608,126.286 2.272,128.198 2.024,130.803C1.739,133.79 4.08,136.303 7.009,136.303L29.778,136.303C24.367,141.968 17.367,148.438 11.161,152.917C9.162,154.36 8.552,157.064 9.791,159.196L9.884,159.356C11.392,161.953 14.774,162.668 17.175,160.922C26.669,154.018 37.474,143.277 43.189,136.303L55.892,136.303C61.557,136.303 67.161,137.483 72.344,139.769C86.778,146.133 95.428,161.114 93.722,176.797C93.113,182.395 91.38,187.813 88.626,192.726L78.702,210.426C62.486,212.68 47.446,222.239 46.78,222.667C44.453,224.163 43.822,227.234 45.274,229.588C47.157,232.642 50.848,231.909 52.195,231.094C52.976,230.622 61.302,225.303 72.162,222.092L70.216,225.673C68.896,228.053 69.716,231.052 72.063,232.43C74.488,233.854 77.61,233.005 78.98,230.549L86.195,217.543L97.193,197.926C99.98,192.955 103.803,188.639 108.401,185.273C121.13,175.954 138.429,175.954 151.158,185.273C156.472,189.163 160.791,194.253 163.765,200.128L179.077,230.379C180.329,232.846 183.344,233.83 185.81,232.578C188.276,231.326 189.261,228.312 188.009,225.845L179.139,208.262C186.313,209.871 196.112,213.015 203.305,218.706C205.579,220.505 208.848,219.635 210.345,217.931C212.17,215.852 211.729,212.62 209.57,210.891C197.507,201.22 180.188,197.969 173.438,197.029L169.612,189.492C167.598,185.523 166.319,181.222 165.837,176.798C164.131,161.115 172.78,146.134 187.215,139.77C192.399,137.484 198.002,136.304 203.668,136.304L222.626,136.304C231.856,144.643 244.636,152.637 250.534,155.945C252.904,157.274 256.104,156.161 257.348,154.009C258.733,151.614 257.829,148.542 255.413,147.195ZM113.085,145.207C103.865,145.207 96.39,138.978 96.39,131.295C96.39,123.612 103.864,117.383 113.085,117.383C122.305,117.383 129.78,123.612 129.78,131.295C129.78,138.978 122.305,145.207 113.085,145.207Z" style="fill:rgb(228,13,242);fill-rule:nonzero;"/>
                        </g>
                        <g transform="matrix(-0.322904,-0.19593,0.19593,-0.322904,366.101,780.692)">
                            <path d="M255.413,147.195C250.369,144.383 240.01,137.929 231.775,130.997C240.19,125.561 249.818,120.508 251.853,119.605C254.381,118.483 255.521,115.524 254.4,112.996C253.277,110.467 250.319,109.326 247.791,110.449C244.777,111.787 230.552,119.316 220.896,126.286L203.68,126.286C198.011,126.286 192.404,125.105 187.217,122.818C172.782,116.453 164.132,101.472 165.838,85.788C166.464,80.028 168.321,74.47 171.282,69.49L176.986,59.896C191.02,58.026 204.546,52.827 216.206,44.791C218.393,43.284 219.27,40.353 217.957,38.043C216.481,35.447 213.137,34.729 210.74,36.392C204.74,40.557 195.606,45.612 183.788,48.456L192.241,34.239C193.578,31.991 193.132,29.005 191.023,27.457C188.604,25.682 185.244,26.409 183.745,28.928L162.201,65.161C159.375,69.914 155.619,74.047 151.157,77.313C138.428,86.631 121.129,86.631 108.4,77.313C103.79,73.938 99.954,69.616 97.152,64.636L86.467,45.651C88.342,34.01 85.874,13.511 83.586,5.675C82.83,3.088 80.2,1.388 77.577,2.008C74.742,2.678 73.098,5.583 73.926,8.33C75.908,14.904 77.669,30.973 76.942,40.868C69.47,38.762 62.201,35.662 57.778,32.644C55.648,31.191 52.703,31.407 51.009,33.351C49.012,35.644 49.492,39.092 51.922,40.774C57.922,44.928 71.12,49.873 78.263,51.498L88.625,69.909C91.38,74.803 93.113,80.206 93.721,85.789C95.427,101.472 86.777,116.454 72.342,122.819C67.155,125.106 61.548,126.287 55.879,126.287L43.376,126.287C34.993,114.301 32.277,110.191 32.25,110.149C30.727,107.84 27.622,107.2 25.312,108.722C23.002,110.244 22.363,113.349 23.884,115.658C23.979,115.802 25.815,118.582 31.165,126.286L7.224,126.286C4.608,126.286 2.272,128.198 2.024,130.803C1.739,133.79 4.08,136.303 7.009,136.303L29.778,136.303C24.367,141.968 17.367,148.438 11.161,152.917C9.162,154.36 8.552,157.064 9.791,159.196L9.884,159.356C11.392,161.953 14.774,162.668 17.175,160.922C26.669,154.018 37.474,143.277 43.189,136.303L55.892,136.303C61.557,136.303 67.161,137.483 72.344,139.769C86.778,146.133 95.428,161.114 93.722,176.797C93.113,182.395 91.38,187.813 88.626,192.726L78.702,210.426C62.486,212.68 47.446,222.239 46.78,222.667C44.453,224.163 43.822,227.234 45.274,229.588C47.157,232.642 50.848,231.909 52.195,231.094C52.976,230.622 61.302,225.303 72.162,222.092L70.216,225.673C68.896,228.053 69.716,231.052 72.063,232.43C74.488,233.854 77.61,233.005 78.98,230.549L86.195,217.543L97.193,197.926C99.98,192.955 103.803,188.639 108.401,185.273C121.13,175.954 138.429,175.954 151.158,185.273C156.472,189.163 160.791,194.253 163.765,200.128L179.077,230.379C180.329,232.846 183.344,233.83 185.81,232.578C188.276,231.326 189.261,228.312 188.009,225.845L179.139,208.262C186.313,209.871 196.112,213.015 203.305,218.706C205.579,220.505 208.848,219.635 210.345,217.931C212.17,215.852 211.729,212.62 209.57,210.891C197.507,201.22 180.188,197.969 173.438,197.029L169.612,189.492C167.598,185.523 166.319,181.222 165.837,176.798C164.131,161.115 172.78,146.134 187.215,139.77C192.399,137.484 198.002,136.304 203.668,136.304L222.626,136.304C231.856,144.643 244.636,152.637 250.534,155.945C252.904,157.274 256.104,156.161 257.348,154.009C258.733,151.614 257.829,148.542 255.413,147.195ZM113.085,145.207C103.865,145.207 96.39,138.978 96.39,131.295C96.39,123.612 103.864,117.383 113.085,117.383C122.305,117.383 129.78,123.612 129.78,131.295C129.78,138.978 122.305,145.207 113.085,145.207Z" style="fill:rgb(66,13,242);fill-rule:nonzero;"/>
                        </g>
                        <g transform="matrix(-0.187083,-0.0608624,0.0603939,-0.185643,430.255,743.113)">
                            <path d="M255.413,147.195C250.369,144.383 240.01,137.929 231.775,130.997C240.19,125.561 249.818,120.508 251.853,119.605C254.381,118.483 255.521,115.524 254.4,112.996C253.277,110.467 250.319,109.326 247.791,110.449C244.777,111.787 230.552,119.316 220.896,126.286L203.68,126.286C198.011,126.286 192.404,125.105 187.217,122.818C172.782,116.453 164.132,101.472 165.838,85.788C166.464,80.028 168.321,74.47 171.282,69.49L176.986,59.896C191.02,58.026 204.546,52.827 216.206,44.791C218.393,43.284 219.27,40.353 217.957,38.043C216.481,35.447 213.137,34.729 210.74,36.392C204.74,40.557 195.606,45.612 183.788,48.456L192.241,34.239C193.578,31.991 193.132,29.005 191.023,27.457C188.604,25.682 185.244,26.409 183.745,28.928L162.201,65.161C159.375,69.914 155.619,74.047 151.157,77.313C138.428,86.631 121.129,86.631 108.4,77.313C103.79,73.938 99.954,69.616 97.152,64.636L86.467,45.651C88.342,34.01 85.874,13.511 83.586,5.675C82.83,3.088 80.2,1.388 77.577,2.008C74.742,2.678 73.098,5.583 73.926,8.33C75.908,14.904 77.669,30.973 76.942,40.868C69.47,38.762 62.201,35.662 57.778,32.644C55.648,31.191 52.703,31.407 51.009,33.351C49.012,35.644 49.492,39.092 51.922,40.774C57.922,44.928 71.12,49.873 78.263,51.498L88.625,69.909C91.38,74.803 93.113,80.206 93.721,85.789C95.427,101.472 86.777,116.454 72.342,122.819C67.155,125.106 61.548,126.287 55.879,126.287L43.376,126.287C34.993,114.301 32.277,110.191 32.25,110.149C30.727,107.84 27.622,107.2 25.312,108.722C23.002,110.244 22.363,113.349 23.884,115.658C23.979,115.802 25.815,118.582 31.165,126.286L7.224,126.286C4.608,126.286 2.272,128.198 2.024,130.803C1.739,133.79 4.08,136.303 7.009,136.303L29.778,136.303C24.367,141.968 17.367,148.438 11.161,152.917C9.162,154.36 8.552,157.064 9.791,159.196L9.884,159.356C11.392,161.953 14.774,162.668 17.175,160.922C26.669,154.018 37.474,143.277 43.189,136.303L55.892,136.303C61.557,136.303 67.161,137.483 72.344,139.769C86.778,146.133 95.428,161.114 93.722,176.797C93.113,182.395 91.38,187.813 88.626,192.726L78.702,210.426C62.486,212.68 47.446,222.239 46.78,222.667C44.453,224.163 43.822,227.234 45.274,229.588C47.157,232.642 50.848,231.909 52.195,231.094C52.976,230.622 61.302,225.303 72.162,222.092L70.216,225.673C68.896,228.053 69.716,231.052 72.063,232.43C74.488,233.854 77.61,233.005 78.98,230.549L86.195,217.543L97.193,197.926C99.98,192.955 103.803,188.639 108.401,185.273C121.13,175.954 138.429,175.954 151.158,185.273C156.472,189.163 160.791,194.253 163.765,200.128L179.077,230.379C180.329,232.846 183.344,233.83 185.81,232.578C188.276,231.326 189.261,228.312 188.009,225.845L179.139,208.262C186.313,209.871 196.112,213.015 203.305,218.706C205.579,220.505 208.848,219.635 210.345,217.931C212.17,215.852 211.729,212.62 209.57,210.891C197.507,201.22 180.188,197.969 173.438,197.029L169.612,189.492C167.598,185.523 166.319,181.222 165.837,176.798C164.131,161.115 172.78,146.134 187.215,139.77C192.399,137.484 198.002,136.304 203.668,136.304L222.626,136.304C231.856,144.643 244.636,152.637 250.534,155.945C252.904,157.274 256.104,156.161 257.348,154.009C258.733,151.614 257.829,148.542 255.413,147.195ZM113.085,145.207C103.865,145.207 96.39,138.978 96.39,131.295C96.39,123.612 103.864,117.383 113.085,117.383C122.305,117.383 129.78,123.612 129.78,131.295C129.78,138.978 122.305,145.207 113.085,145.207Z" style="fill:rgb(255,0,0);fill-rule:nonzero;"/>
                        </g>
                        <g transform="matrix(0.186433,-0.0628265,0.0623429,0.184998,381.646,585.648)">
                            <path d="M255.413,147.195C250.369,144.383 240.01,137.929 231.775,130.997C240.19,125.561 249.818,120.508 251.853,119.605C254.381,118.483 255.521,115.524 254.4,112.996C253.277,110.467 250.319,109.326 247.791,110.449C244.777,111.787 230.552,119.316 220.896,126.286L203.68,126.286C198.011,126.286 192.404,125.105 187.217,122.818C172.782,116.453 164.132,101.472 165.838,85.788C166.464,80.028 168.321,74.47 171.282,69.49L176.986,59.896C191.02,58.026 204.546,52.827 216.206,44.791C218.393,43.284 219.27,40.353 217.957,38.043C216.481,35.447 213.137,34.729 210.74,36.392C204.74,40.557 195.606,45.612 183.788,48.456L192.241,34.239C193.578,31.991 193.132,29.005 191.023,27.457C188.604,25.682 185.244,26.409 183.745,28.928L162.201,65.161C159.375,69.914 155.619,74.047 151.157,77.313C138.428,86.631 121.129,86.631 108.4,77.313C103.79,73.938 99.954,69.616 97.152,64.636L86.467,45.651C88.342,34.01 85.874,13.511 83.586,5.675C82.83,3.088 80.2,1.388 77.577,2.008C74.742,2.678 73.098,5.583 73.926,8.33C75.908,14.904 77.669,30.973 76.942,40.868C69.47,38.762 62.201,35.662 57.778,32.644C55.648,31.191 52.703,31.407 51.009,33.351C49.012,35.644 49.492,39.092 51.922,40.774C57.922,44.928 71.12,49.873 78.263,51.498L88.625,69.909C91.38,74.803 93.113,80.206 93.721,85.789C95.427,101.472 86.777,116.454 72.342,122.819C67.155,125.106 61.548,126.287 55.879,126.287L43.376,126.287C34.993,114.301 32.277,110.191 32.25,110.149C30.727,107.84 27.622,107.2 25.312,108.722C23.002,110.244 22.363,113.349 23.884,115.658C23.979,115.802 25.815,118.582 31.165,126.286L7.224,126.286C4.608,126.286 2.272,128.198 2.024,130.803C1.739,133.79 4.08,136.303 7.009,136.303L29.778,136.303C24.367,141.968 17.367,148.438 11.161,152.917C9.162,154.36 8.552,157.064 9.791,159.196L9.884,159.356C11.392,161.953 14.774,162.668 17.175,160.922C26.669,154.018 37.474,143.277 43.189,136.303L55.892,136.303C61.557,136.303 67.161,137.483 72.344,139.769C86.778,146.133 95.428,161.114 93.722,176.797C93.113,182.395 91.38,187.813 88.626,192.726L78.702,210.426C62.486,212.68 47.446,222.239 46.78,222.667C44.453,224.163 43.822,227.234 45.274,229.588C47.157,232.642 50.848,231.909 52.195,231.094C52.976,230.622 61.302,225.303 72.162,222.092L70.216,225.673C68.896,228.053 69.716,231.052 72.063,232.43C74.488,233.854 77.61,233.005 78.98,230.549L86.195,217.543L97.193,197.926C99.98,192.955 103.803,188.639 108.401,185.273C121.13,175.954 138.429,175.954 151.158,185.273C156.472,189.163 160.791,194.253 163.765,200.128L179.077,230.379C180.329,232.846 183.344,233.83 185.81,232.578C188.276,231.326 189.261,228.312 188.009,225.845L179.139,208.262C186.313,209.871 196.112,213.015 203.305,218.706C205.579,220.505 208.848,219.635 210.345,217.931C212.17,215.852 211.729,212.62 209.57,210.891C197.507,201.22 180.188,197.969 173.438,197.029L169.612,189.492C167.598,185.523 166.319,181.222 165.837,176.798C164.131,161.115 172.78,146.134 187.215,139.77C192.399,137.484 198.002,136.304 203.668,136.304L222.626,136.304C231.856,144.643 244.636,152.637 250.534,155.945C252.904,157.274 256.104,156.161 257.348,154.009C258.733,151.614 257.829,148.542 255.413,147.195ZM113.085,145.207C103.865,145.207 96.39,138.978 96.39,131.295C96.39,123.612 103.864,117.383 113.085,117.383C122.305,117.383 129.78,123.612 129.78,131.295C129.78,138.978 122.305,145.207 113.085,145.207Z" style="fill:rgb(228,13,242);fill-rule:nonzero;"/>
                        </g>
                        <g transform="matrix(0.231397,-0.142538,0.105755,0.16879,490.287,742.674)">
                            <path d="M255.413,147.195C250.369,144.383 240.01,137.929 231.775,130.997C240.19,125.561 249.818,120.508 251.853,119.605C254.381,118.483 255.521,115.524 254.4,112.996C253.277,110.467 250.319,109.326 247.791,110.449C244.777,111.787 230.552,119.316 220.896,126.286L203.68,126.286C198.011,126.286 192.404,125.105 187.217,122.818C172.782,116.453 164.132,101.472 165.838,85.788C166.464,80.028 168.321,74.47 171.282,69.49L176.986,59.896C191.02,58.026 204.546,52.827 216.206,44.791C218.393,43.284 219.27,40.353 217.957,38.043C216.481,35.447 213.137,34.729 210.74,36.392C204.74,40.557 195.606,45.612 183.788,48.456L192.241,34.239C193.578,31.991 193.132,29.005 191.023,27.457C188.604,25.682 185.244,26.409 183.745,28.928L162.201,65.161C159.375,69.914 155.619,74.047 151.157,77.313C138.428,86.631 121.129,86.631 108.4,77.313C103.79,73.938 99.954,69.616 97.152,64.636L86.467,45.651C88.342,34.01 85.874,13.511 83.586,5.675C82.83,3.088 80.2,1.388 77.577,2.008C74.742,2.678 73.098,5.583 73.926,8.33C75.908,14.904 77.669,30.973 76.942,40.868C69.47,38.762 62.201,35.662 57.778,32.644C55.648,31.191 52.703,31.407 51.009,33.351C49.012,35.644 49.492,39.092 51.922,40.774C57.922,44.928 71.12,49.873 78.263,51.498L88.625,69.909C91.38,74.803 93.113,80.206 93.721,85.789C95.427,101.472 86.777,116.454 72.342,122.819C67.155,125.106 61.548,126.287 55.879,126.287L43.376,126.287C34.993,114.301 32.277,110.191 32.25,110.149C30.727,107.84 27.622,107.2 25.312,108.722C23.002,110.244 22.363,113.349 23.884,115.658C23.979,115.802 25.815,118.582 31.165,126.286L7.224,126.286C4.608,126.286 2.272,128.198 2.024,130.803C1.739,133.79 4.08,136.303 7.009,136.303L29.778,136.303C24.367,141.968 17.367,148.438 11.161,152.917C9.162,154.36 8.552,157.064 9.791,159.196L9.884,159.356C11.392,161.953 14.774,162.668 17.175,160.922C26.669,154.018 37.474,143.277 43.189,136.303L55.892,136.303C61.557,136.303 67.161,137.483 72.344,139.769C86.778,146.133 95.428,161.114 93.722,176.797C93.113,182.395 91.38,187.813 88.626,192.726L78.702,210.426C62.486,212.68 47.446,222.239 46.78,222.667C44.453,224.163 43.822,227.234 45.274,229.588C47.157,232.642 50.848,231.909 52.195,231.094C52.976,230.622 61.302,225.303 72.162,222.092L70.216,225.673C68.896,228.053 69.716,231.052 72.063,232.43C74.488,233.854 77.61,233.005 78.98,230.549L86.195,217.543L97.193,197.926C99.98,192.955 103.803,188.639 108.401,185.273C121.13,175.954 138.429,175.954 151.158,185.273C156.472,189.163 160.791,194.253 163.765,200.128L179.077,230.379C180.329,232.846 183.344,233.83 185.81,232.578C188.276,231.326 189.261,228.312 188.009,225.845L179.139,208.262C186.313,209.871 196.112,213.015 203.305,218.706C205.579,220.505 208.848,219.635 210.345,217.931C212.17,215.852 211.729,212.62 209.57,210.891C197.507,201.22 180.188,197.969 173.438,197.029L169.612,189.492C167.598,185.523 166.319,181.222 165.837,176.798C164.131,161.115 172.78,146.134 187.215,139.77C192.399,137.484 198.002,136.304 203.668,136.304L222.626,136.304C231.856,144.643 244.636,152.637 250.534,155.945C252.904,157.274 256.104,156.161 257.348,154.009C258.733,151.614 257.829,148.542 255.413,147.195ZM113.085,145.207C103.865,145.207 96.39,138.978 96.39,131.295C96.39,123.612 103.864,117.383 113.085,117.383C122.305,117.383 129.78,123.612 129.78,131.295C129.78,138.978 122.305,145.207 113.085,145.207Z" style="fill:rgb(66,13,242);fill-rule:nonzero;"/>
                        </g>
                        <g transform="matrix(0.311637,-0.191965,0.189849,0.303011,494.968,817.457)">
                            <path d="M255.413,147.195C250.369,144.383 240.01,137.929 231.775,130.997C240.19,125.561 249.818,120.508 251.853,119.605C254.381,118.483 255.521,115.524 254.4,112.996C253.277,110.467 250.319,109.326 247.791,110.449C244.777,111.787 230.552,119.316 220.896,126.286L203.68,126.286C198.011,126.286 192.404,125.105 187.217,122.818C172.782,116.453 164.132,101.472 165.838,85.788C166.464,80.028 168.321,74.47 171.282,69.49L176.986,59.896C191.02,58.026 204.546,52.827 216.206,44.791C218.393,43.284 219.27,40.353 217.957,38.043C216.481,35.447 213.137,34.729 210.74,36.392C204.74,40.557 195.606,45.612 183.788,48.456L192.241,34.239C193.578,31.991 193.132,29.005 191.023,27.457C188.604,25.682 185.244,26.409 183.745,28.928L162.201,65.161C159.375,69.914 155.619,74.047 151.157,77.313C138.428,86.631 121.129,86.631 108.4,77.313C103.79,73.938 99.954,69.616 97.152,64.636L86.467,45.651C88.342,34.01 85.874,13.511 83.586,5.675C82.83,3.088 80.2,1.388 77.577,2.008C74.742,2.678 73.098,5.583 73.926,8.33C75.908,14.904 77.669,30.973 76.942,40.868C69.47,38.762 62.201,35.662 57.778,32.644C55.648,31.191 52.703,31.407 51.009,33.351C49.012,35.644 49.492,39.092 51.922,40.774C57.922,44.928 71.12,49.873 78.263,51.498L88.625,69.909C91.38,74.803 93.113,80.206 93.721,85.789C95.427,101.472 86.777,116.454 72.342,122.819C67.155,125.106 61.548,126.287 55.879,126.287L43.376,126.287C34.993,114.301 32.277,110.191 32.25,110.149C30.727,107.84 27.622,107.2 25.312,108.722C23.002,110.244 22.363,113.349 23.884,115.658C23.979,115.802 25.815,118.582 31.165,126.286L7.224,126.286C4.608,126.286 2.272,128.198 2.024,130.803C1.739,133.79 4.08,136.303 7.009,136.303L29.778,136.303C24.367,141.968 17.367,148.438 11.161,152.917C9.162,154.36 8.552,157.064 9.791,159.196L9.884,159.356C11.392,161.953 14.774,162.668 17.175,160.922C26.669,154.018 37.474,143.277 43.189,136.303L55.892,136.303C61.557,136.303 67.161,137.483 72.344,139.769C86.778,146.133 95.428,161.114 93.722,176.797C93.113,182.395 91.38,187.813 88.626,192.726L78.702,210.426C62.486,212.68 47.446,222.239 46.78,222.667C44.453,224.163 43.822,227.234 45.274,229.588C47.157,232.642 50.848,231.909 52.195,231.094C52.976,230.622 61.302,225.303 72.162,222.092L70.216,225.673C68.896,228.053 69.716,231.052 72.063,232.43C74.488,233.854 77.61,233.005 78.98,230.549L86.195,217.543L97.193,197.926C99.98,192.955 103.803,188.639 108.401,185.273C121.13,175.954 138.429,175.954 151.158,185.273C156.472,189.163 160.791,194.253 163.765,200.128L179.077,230.379C180.329,232.846 183.344,233.83 185.81,232.578C188.276,231.326 189.261,228.312 188.009,225.845L179.139,208.262C186.313,209.871 196.112,213.015 203.305,218.706C205.579,220.505 208.848,219.635 210.345,217.931C212.17,215.852 211.729,212.62 209.57,210.891C197.507,201.22 180.188,197.969 173.438,197.029L169.612,189.492C167.598,185.523 166.319,181.222 165.837,176.798C164.131,161.115 172.78,146.134 187.215,139.77C192.399,137.484 198.002,136.304 203.668,136.304L222.626,136.304C231.856,144.643 244.636,152.637 250.534,155.945C252.904,157.274 256.104,156.161 257.348,154.009C258.733,151.614 257.829,148.542 255.413,147.195ZM113.085,145.207C103.865,145.207 96.39,138.978 96.39,131.295C96.39,123.612 103.864,117.383 113.085,117.383C122.305,117.383 129.78,123.612 129.78,131.295C129.78,138.978 122.305,145.207 113.085,145.207Z" style="fill:rgb(242,175,13);fill-rule:nonzero;"/>
                        </g>
                        <g transform="matrix(0.219001,-0.134902,0.136722,0.218216,345.254,649.502)">
                            <path d="M255.413,147.195C250.369,144.383 240.01,137.929 231.775,130.997C240.19,125.561 249.818,120.508 251.853,119.605C254.381,118.483 255.521,115.524 254.4,112.996C253.277,110.467 250.319,109.326 247.791,110.449C244.777,111.787 230.552,119.316 220.896,126.286L203.68,126.286C198.011,126.286 192.404,125.105 187.217,122.818C172.782,116.453 164.132,101.472 165.838,85.788C166.464,80.028 168.321,74.47 171.282,69.49L176.986,59.896C191.02,58.026 204.546,52.827 216.206,44.791C218.393,43.284 219.27,40.353 217.957,38.043C216.481,35.447 213.137,34.729 210.74,36.392C204.74,40.557 195.606,45.612 183.788,48.456L192.241,34.239C193.578,31.991 193.132,29.005 191.023,27.457C188.604,25.682 185.244,26.409 183.745,28.928L162.201,65.161C159.375,69.914 155.619,74.047 151.157,77.313C138.428,86.631 121.129,86.631 108.4,77.313C103.79,73.938 99.954,69.616 97.152,64.636L86.467,45.651C88.342,34.01 85.874,13.511 83.586,5.675C82.83,3.088 80.2,1.388 77.577,2.008C74.742,2.678 73.098,5.583 73.926,8.33C75.908,14.904 77.669,30.973 76.942,40.868C69.47,38.762 62.201,35.662 57.778,32.644C55.648,31.191 52.703,31.407 51.009,33.351C49.012,35.644 49.492,39.092 51.922,40.774C57.922,44.928 71.12,49.873 78.263,51.498L88.625,69.909C91.38,74.803 93.113,80.206 93.721,85.789C95.427,101.472 86.777,116.454 72.342,122.819C67.155,125.106 61.548,126.287 55.879,126.287L43.376,126.287C34.993,114.301 32.277,110.191 32.25,110.149C30.727,107.84 27.622,107.2 25.312,108.722C23.002,110.244 22.363,113.349 23.884,115.658C23.979,115.802 25.815,118.582 31.165,126.286L7.224,126.286C4.608,126.286 2.272,128.198 2.024,130.803C1.739,133.79 4.08,136.303 7.009,136.303L29.778,136.303C24.367,141.968 17.367,148.438 11.161,152.917C9.162,154.36 8.552,157.064 9.791,159.196L9.884,159.356C11.392,161.953 14.774,162.668 17.175,160.922C26.669,154.018 37.474,143.277 43.189,136.303L55.892,136.303C61.557,136.303 67.161,137.483 72.344,139.769C86.778,146.133 95.428,161.114 93.722,176.797C93.113,182.395 91.38,187.813 88.626,192.726L78.702,210.426C62.486,212.68 47.446,222.239 46.78,222.667C44.453,224.163 43.822,227.234 45.274,229.588C47.157,232.642 50.848,231.909 52.195,231.094C52.976,230.622 61.302,225.303 72.162,222.092L70.216,225.673C68.896,228.053 69.716,231.052 72.063,232.43C74.488,233.854 77.61,233.005 78.98,230.549L86.195,217.543L97.193,197.926C99.98,192.955 103.803,188.639 108.401,185.273C121.13,175.954 138.429,175.954 151.158,185.273C156.472,189.163 160.791,194.253 163.765,200.128L179.077,230.379C180.329,232.846 183.344,233.83 185.81,232.578C188.276,231.326 189.261,228.312 188.009,225.845L179.139,208.262C186.313,209.871 196.112,213.015 203.305,218.706C205.579,220.505 208.848,219.635 210.345,217.931C212.17,215.852 211.729,212.62 209.57,210.891C197.507,201.22 180.188,197.969 173.438,197.029L169.612,189.492C167.598,185.523 166.319,181.222 165.837,176.798C164.131,161.115 172.78,146.134 187.215,139.77C192.399,137.484 198.002,136.304 203.668,136.304L222.626,136.304C231.856,144.643 244.636,152.637 250.534,155.945C252.904,157.274 256.104,156.161 257.348,154.009C258.733,151.614 257.829,148.542 255.413,147.195ZM113.085,145.207C103.865,145.207 96.39,138.978 96.39,131.295C96.39,123.612 103.864,117.383 113.085,117.383C122.305,117.383 129.78,123.612 129.78,131.295C129.78,138.978 122.305,145.207 113.085,145.207Z" style="fill:rgb(242,175,13);fill-rule:nonzero;"/>
                        </g>
                        <g transform="matrix(0.200777,-0.123676,0.130975,0.209044,607.839,601.163)">
                            <path d="M255.413,147.195C250.369,144.383 240.01,137.929 231.775,130.997C240.19,125.561 249.818,120.508 251.853,119.605C254.381,118.483 255.521,115.524 254.4,112.996C253.277,110.467 250.319,109.326 247.791,110.449C244.777,111.787 230.552,119.316 220.896,126.286L203.68,126.286C198.011,126.286 192.404,125.105 187.217,122.818C172.782,116.453 164.132,101.472 165.838,85.788C166.464,80.028 168.321,74.47 171.282,69.49L176.986,59.896C191.02,58.026 204.546,52.827 216.206,44.791C218.393,43.284 219.27,40.353 217.957,38.043C216.481,35.447 213.137,34.729 210.74,36.392C204.74,40.557 195.606,45.612 183.788,48.456L192.241,34.239C193.578,31.991 193.132,29.005 191.023,27.457C188.604,25.682 185.244,26.409 183.745,28.928L162.201,65.161C159.375,69.914 155.619,74.047 151.157,77.313C138.428,86.631 121.129,86.631 108.4,77.313C103.79,73.938 99.954,69.616 97.152,64.636L86.467,45.651C88.342,34.01 85.874,13.511 83.586,5.675C82.83,3.088 80.2,1.388 77.577,2.008C74.742,2.678 73.098,5.583 73.926,8.33C75.908,14.904 77.669,30.973 76.942,40.868C69.47,38.762 62.201,35.662 57.778,32.644C55.648,31.191 52.703,31.407 51.009,33.351C49.012,35.644 49.492,39.092 51.922,40.774C57.922,44.928 71.12,49.873 78.263,51.498L88.625,69.909C91.38,74.803 93.113,80.206 93.721,85.789C95.427,101.472 86.777,116.454 72.342,122.819C67.155,125.106 61.548,126.287 55.879,126.287L43.376,126.287C34.993,114.301 32.277,110.191 32.25,110.149C30.727,107.84 27.622,107.2 25.312,108.722C23.002,110.244 22.363,113.349 23.884,115.658C23.979,115.802 25.815,118.582 31.165,126.286L7.224,126.286C4.608,126.286 2.272,128.198 2.024,130.803C1.739,133.79 4.08,136.303 7.009,136.303L29.778,136.303C24.367,141.968 17.367,148.438 11.161,152.917C9.162,154.36 8.552,157.064 9.791,159.196L9.884,159.356C11.392,161.953 14.774,162.668 17.175,160.922C26.669,154.018 37.474,143.277 43.189,136.303L55.892,136.303C61.557,136.303 67.161,137.483 72.344,139.769C86.778,146.133 95.428,161.114 93.722,176.797C93.113,182.395 91.38,187.813 88.626,192.726L78.702,210.426C62.486,212.68 47.446,222.239 46.78,222.667C44.453,224.163 43.822,227.234 45.274,229.588C47.157,232.642 50.848,231.909 52.195,231.094C52.976,230.622 61.302,225.303 72.162,222.092L70.216,225.673C68.896,228.053 69.716,231.052 72.063,232.43C74.488,233.854 77.61,233.005 78.98,230.549L86.195,217.543L97.193,197.926C99.98,192.955 103.803,188.639 108.401,185.273C121.13,175.954 138.429,175.954 151.158,185.273C156.472,189.163 160.791,194.253 163.765,200.128L179.077,230.379C180.329,232.846 183.344,233.83 185.81,232.578C188.276,231.326 189.261,228.312 188.009,225.845L179.139,208.262C186.313,209.871 196.112,213.015 203.305,218.706C205.579,220.505 208.848,219.635 210.345,217.931C212.17,215.852 211.729,212.62 209.57,210.891C197.507,201.22 180.188,197.969 173.438,197.029L169.612,189.492C167.598,185.523 166.319,181.222 165.837,176.798C164.131,161.115 172.78,146.134 187.215,139.77C192.399,137.484 198.002,136.304 203.668,136.304L222.626,136.304C231.856,144.643 244.636,152.637 250.534,155.945C252.904,157.274 256.104,156.161 257.348,154.009C258.733,151.614 257.829,148.542 255.413,147.195ZM113.085,145.207C103.865,145.207 96.39,138.978 96.39,131.295C96.39,123.612 103.864,117.383 113.085,117.383C122.305,117.383 129.78,123.612 129.78,131.295C129.78,138.978 122.305,145.207 113.085,145.207Z" style="fill:rgb(242,175,13);fill-rule:nonzero;"/>
                        </g>
                        <g transform="matrix(0.0868574,-0.0535032,0.0538165,0.0858942,640.674,754.028)">
                            <path d="M255.413,147.195C250.369,144.383 240.01,137.929 231.775,130.997C240.19,125.561 249.818,120.508 251.853,119.605C254.381,118.483 255.521,115.524 254.4,112.996C253.277,110.467 250.319,109.326 247.791,110.449C244.777,111.787 230.552,119.316 220.896,126.286L203.68,126.286C198.011,126.286 192.404,125.105 187.217,122.818C172.782,116.453 164.132,101.472 165.838,85.788C166.464,80.028 168.321,74.47 171.282,69.49L176.986,59.896C191.02,58.026 204.546,52.827 216.206,44.791C218.393,43.284 219.27,40.353 217.957,38.043C216.481,35.447 213.137,34.729 210.74,36.392C204.74,40.557 195.606,45.612 183.788,48.456L192.241,34.239C193.578,31.991 193.132,29.005 191.023,27.457C188.604,25.682 185.244,26.409 183.745,28.928L162.201,65.161C159.375,69.914 155.619,74.047 151.157,77.313C138.428,86.631 121.129,86.631 108.4,77.313C103.79,73.938 99.954,69.616 97.152,64.636L86.467,45.651C88.342,34.01 85.874,13.511 83.586,5.675C82.83,3.088 80.2,1.388 77.577,2.008C74.742,2.678 73.098,5.583 73.926,8.33C75.908,14.904 77.669,30.973 76.942,40.868C69.47,38.762 62.201,35.662 57.778,32.644C55.648,31.191 52.703,31.407 51.009,33.351C49.012,35.644 49.492,39.092 51.922,40.774C57.922,44.928 71.12,49.873 78.263,51.498L88.625,69.909C91.38,74.803 93.113,80.206 93.721,85.789C95.427,101.472 86.777,116.454 72.342,122.819C67.155,125.106 61.548,126.287 55.879,126.287L43.376,126.287C34.993,114.301 32.277,110.191 32.25,110.149C30.727,107.84 27.622,107.2 25.312,108.722C23.002,110.244 22.363,113.349 23.884,115.658C23.979,115.802 25.815,118.582 31.165,126.286L7.224,126.286C4.608,126.286 2.272,128.198 2.024,130.803C1.739,133.79 4.08,136.303 7.009,136.303L29.778,136.303C24.367,141.968 17.367,148.438 11.161,152.917C9.162,154.36 8.552,157.064 9.791,159.196L9.884,159.356C11.392,161.953 14.774,162.668 17.175,160.922C26.669,154.018 37.474,143.277 43.189,136.303L55.892,136.303C61.557,136.303 67.161,137.483 72.344,139.769C86.778,146.133 95.428,161.114 93.722,176.797C93.113,182.395 91.38,187.813 88.626,192.726L78.702,210.426C62.486,212.68 47.446,222.239 46.78,222.667C44.453,224.163 43.822,227.234 45.274,229.588C47.157,232.642 50.848,231.909 52.195,231.094C52.976,230.622 61.302,225.303 72.162,222.092L70.216,225.673C68.896,228.053 69.716,231.052 72.063,232.43C74.488,233.854 77.61,233.005 78.98,230.549L86.195,217.543L97.193,197.926C99.98,192.955 103.803,188.639 108.401,185.273C121.13,175.954 138.429,175.954 151.158,185.273C156.472,189.163 160.791,194.253 163.765,200.128L179.077,230.379C180.329,232.846 183.344,233.83 185.81,232.578C188.276,231.326 189.261,228.312 188.009,225.845L179.139,208.262C186.313,209.871 196.112,213.015 203.305,218.706C205.579,220.505 208.848,219.635 210.345,217.931C212.17,215.852 211.729,212.62 209.57,210.891C197.507,201.22 180.188,197.969 173.438,197.029L169.612,189.492C167.598,185.523 166.319,181.222 165.837,176.798C164.131,161.115 172.78,146.134 187.215,139.77C192.399,137.484 198.002,136.304 203.668,136.304L222.626,136.304C231.856,144.643 244.636,152.637 250.534,155.945C252.904,157.274 256.104,156.161 257.348,154.009C258.733,151.614 257.829,148.542 255.413,147.195ZM113.085,145.207C103.865,145.207 96.39,138.978 96.39,131.295C96.39,123.612 103.864,117.383 113.085,117.383C122.305,117.383 129.78,123.612 129.78,131.295C129.78,138.978 122.305,145.207 113.085,145.207Z" style="fill:rgb(228,13,242);fill-rule:nonzero;"/>
                        </g>
                        <g transform="matrix(0.188662,-0.116214,0.105443,0.168292,435.373,621.999)">
                            <path d="M255.413,147.195C250.369,144.383 240.01,137.929 231.775,130.997C240.19,125.561 249.818,120.508 251.853,119.605C254.381,118.483 255.521,115.524 254.4,112.996C253.277,110.467 250.319,109.326 247.791,110.449C244.777,111.787 230.552,119.316 220.896,126.286L203.68,126.286C198.011,126.286 192.404,125.105 187.217,122.818C172.782,116.453 164.132,101.472 165.838,85.788C166.464,80.028 168.321,74.47 171.282,69.49L176.986,59.896C191.02,58.026 204.546,52.827 216.206,44.791C218.393,43.284 219.27,40.353 217.957,38.043C216.481,35.447 213.137,34.729 210.74,36.392C204.74,40.557 195.606,45.612 183.788,48.456L192.241,34.239C193.578,31.991 193.132,29.005 191.023,27.457C188.604,25.682 185.244,26.409 183.745,28.928L162.201,65.161C159.375,69.914 155.619,74.047 151.157,77.313C138.428,86.631 121.129,86.631 108.4,77.313C103.79,73.938 99.954,69.616 97.152,64.636L86.467,45.651C88.342,34.01 85.874,13.511 83.586,5.675C82.83,3.088 80.2,1.388 77.577,2.008C74.742,2.678 73.098,5.583 73.926,8.33C75.908,14.904 77.669,30.973 76.942,40.868C69.47,38.762 62.201,35.662 57.778,32.644C55.648,31.191 52.703,31.407 51.009,33.351C49.012,35.644 49.492,39.092 51.922,40.774C57.922,44.928 71.12,49.873 78.263,51.498L88.625,69.909C91.38,74.803 93.113,80.206 93.721,85.789C95.427,101.472 86.777,116.454 72.342,122.819C67.155,125.106 61.548,126.287 55.879,126.287L43.376,126.287C34.993,114.301 32.277,110.191 32.25,110.149C30.727,107.84 27.622,107.2 25.312,108.722C23.002,110.244 22.363,113.349 23.884,115.658C23.979,115.802 25.815,118.582 31.165,126.286L7.224,126.286C4.608,126.286 2.272,128.198 2.024,130.803C1.739,133.79 4.08,136.303 7.009,136.303L29.778,136.303C24.367,141.968 17.367,148.438 11.161,152.917C9.162,154.36 8.552,157.064 9.791,159.196L9.884,159.356C11.392,161.953 14.774,162.668 17.175,160.922C26.669,154.018 37.474,143.277 43.189,136.303L55.892,136.303C61.557,136.303 67.161,137.483 72.344,139.769C86.778,146.133 95.428,161.114 93.722,176.797C93.113,182.395 91.38,187.813 88.626,192.726L78.702,210.426C62.486,212.68 47.446,222.239 46.78,222.667C44.453,224.163 43.822,227.234 45.274,229.588C47.157,232.642 50.848,231.909 52.195,231.094C52.976,230.622 61.302,225.303 72.162,222.092L70.216,225.673C68.896,228.053 69.716,231.052 72.063,232.43C74.488,233.854 77.61,233.005 78.98,230.549L86.195,217.543L97.193,197.926C99.98,192.955 103.803,188.639 108.401,185.273C121.13,175.954 138.429,175.954 151.158,185.273C156.472,189.163 160.791,194.253 163.765,200.128L179.077,230.379C180.329,232.846 183.344,233.83 185.81,232.578C188.276,231.326 189.261,228.312 188.009,225.845L179.139,208.262C186.313,209.871 196.112,213.015 203.305,218.706C205.579,220.505 208.848,219.635 210.345,217.931C212.17,215.852 211.729,212.62 209.57,210.891C197.507,201.22 180.188,197.969 173.438,197.029L169.612,189.492C167.598,185.523 166.319,181.222 165.837,176.798C164.131,161.115 172.78,146.134 187.215,139.77C192.399,137.484 198.002,136.304 203.668,136.304L222.626,136.304C231.856,144.643 244.636,152.637 250.534,155.945C252.904,157.274 256.104,156.161 257.348,154.009C258.733,151.614 257.829,148.542 255.413,147.195ZM113.085,145.207C103.865,145.207 96.39,138.978 96.39,131.295C96.39,123.612 103.864,117.383 113.085,117.383C122.305,117.383 129.78,123.612 129.78,131.295C129.78,138.978 122.305,145.207 113.085,145.207Z" style="fill:rgb(26,230,49);fill-rule:nonzero;"/>
                        </g>
                        <g transform="matrix(-0.0377574,0.0947691,-0.0944456,-0.0367975,306.105,650.67)">
                            <path d="M255.413,147.195C250.369,144.383 240.01,137.929 231.775,130.997C240.19,125.561 249.818,120.508 251.853,119.605C254.381,118.483 255.521,115.524 254.4,112.996C253.277,110.467 250.319,109.326 247.791,110.449C244.777,111.787 230.552,119.316 220.896,126.286L203.68,126.286C198.011,126.286 192.404,125.105 187.217,122.818C172.782,116.453 164.132,101.472 165.838,85.788C166.464,80.028 168.321,74.47 171.282,69.49L176.986,59.896C191.02,58.026 204.546,52.827 216.206,44.791C218.393,43.284 219.27,40.353 217.957,38.043C216.481,35.447 213.137,34.729 210.74,36.392C204.74,40.557 195.606,45.612 183.788,48.456L192.241,34.239C193.578,31.991 193.132,29.005 191.023,27.457C188.604,25.682 185.244,26.409 183.745,28.928L162.201,65.161C159.375,69.914 155.619,74.047 151.157,77.313C138.428,86.631 121.129,86.631 108.4,77.313C103.79,73.938 99.954,69.616 97.152,64.636L86.467,45.651C88.342,34.01 85.874,13.511 83.586,5.675C82.83,3.088 80.2,1.388 77.577,2.008C74.742,2.678 73.098,5.583 73.926,8.33C75.908,14.904 77.669,30.973 76.942,40.868C69.47,38.762 62.201,35.662 57.778,32.644C55.648,31.191 52.703,31.407 51.009,33.351C49.012,35.644 49.492,39.092 51.922,40.774C57.922,44.928 71.12,49.873 78.263,51.498L88.625,69.909C91.38,74.803 93.113,80.206 93.721,85.789C95.427,101.472 86.777,116.454 72.342,122.819C67.155,125.106 61.548,126.287 55.879,126.287L43.376,126.287C34.993,114.301 32.277,110.191 32.25,110.149C30.727,107.84 27.622,107.2 25.312,108.722C23.002,110.244 22.363,113.349 23.884,115.658C23.979,115.802 25.815,118.582 31.165,126.286L7.224,126.286C4.608,126.286 2.272,128.198 2.024,130.803C1.739,133.79 4.08,136.303 7.009,136.303L29.778,136.303C24.367,141.968 17.367,148.438 11.161,152.917C9.162,154.36 8.552,157.064 9.791,159.196L9.884,159.356C11.392,161.953 14.774,162.668 17.175,160.922C26.669,154.018 37.474,143.277 43.189,136.303L55.892,136.303C61.557,136.303 67.161,137.483 72.344,139.769C86.778,146.133 95.428,161.114 93.722,176.797C93.113,182.395 91.38,187.813 88.626,192.726L78.702,210.426C62.486,212.68 47.446,222.239 46.78,222.667C44.453,224.163 43.822,227.234 45.274,229.588C47.157,232.642 50.848,231.909 52.195,231.094C52.976,230.622 61.302,225.303 72.162,222.092L70.216,225.673C68.896,228.053 69.716,231.052 72.063,232.43C74.488,233.854 77.61,233.005 78.98,230.549L86.195,217.543L97.193,197.926C99.98,192.955 103.803,188.639 108.401,185.273C121.13,175.954 138.429,175.954 151.158,185.273C156.472,189.163 160.791,194.253 163.765,200.128L179.077,230.379C180.329,232.846 183.344,233.83 185.81,232.578C188.276,231.326 189.261,228.312 188.009,225.845L179.139,208.262C186.313,209.871 196.112,213.015 203.305,218.706C205.579,220.505 208.848,219.635 210.345,217.931C212.17,215.852 211.729,212.62 209.57,210.891C197.507,201.22 180.188,197.969 173.438,197.029L169.612,189.492C167.598,185.523 166.319,181.222 165.837,176.798C164.131,161.115 172.78,146.134 187.215,139.77C192.399,137.484 198.002,136.304 203.668,136.304L222.626,136.304C231.856,144.643 244.636,152.637 250.534,155.945C252.904,157.274 256.104,156.161 257.348,154.009C258.733,151.614 257.829,148.542 255.413,147.195ZM113.085,145.207C103.865,145.207 96.39,138.978 96.39,131.295C96.39,123.612 103.864,117.383 113.085,117.383C122.305,117.383 129.78,123.612 129.78,131.295C129.78,138.978 122.305,145.207 113.085,145.207Z" style="fill:rgb(228,13,242);fill-rule:nonzero;"/>
                        </g>
                        <g transform="matrix(0.502794,0.335157,-0.335157,0.502794,440.518,686.244)">
                            <path d="M255.413,147.195C250.369,144.383 240.01,137.929 231.775,130.997C240.19,125.561 249.818,120.508 251.853,119.605C254.381,118.483 255.521,115.524 254.4,112.996C253.277,110.467 250.319,109.326 247.791,110.449C244.777,111.787 230.552,119.316 220.896,126.286L203.68,126.286C198.011,126.286 192.404,125.105 187.217,122.818C172.782,116.453 164.132,101.472 165.838,85.788C166.464,80.028 168.321,74.47 171.282,69.49L176.986,59.896C191.02,58.026 204.546,52.827 216.206,44.791C218.393,43.284 219.27,40.353 217.957,38.043C216.481,35.447 213.137,34.729 210.74,36.392C204.74,40.557 195.606,45.612 183.788,48.456L192.241,34.239C193.578,31.991 193.132,29.005 191.023,27.457C188.604,25.682 185.244,26.409 183.745,28.928L162.201,65.161C159.375,69.914 155.619,74.047 151.157,77.313C138.428,86.631 121.129,86.631 108.4,77.313C103.79,73.938 99.954,69.616 97.152,64.636L86.467,45.651C88.342,34.01 85.874,13.511 83.586,5.675C82.83,3.088 80.2,1.388 77.577,2.008C74.742,2.678 73.098,5.583 73.926,8.33C75.908,14.904 77.669,30.973 76.942,40.868C69.47,38.762 62.201,35.662 57.778,32.644C55.648,31.191 52.703,31.407 51.009,33.351C49.012,35.644 49.492,39.092 51.922,40.774C57.922,44.928 71.12,49.873 78.263,51.498L88.625,69.909C91.38,74.803 93.113,80.206 93.721,85.789C95.427,101.472 86.777,116.454 72.342,122.819C67.155,125.106 61.548,126.287 55.879,126.287L43.376,126.287C34.993,114.301 32.277,110.191 32.25,110.149C30.727,107.84 27.622,107.2 25.312,108.722C23.002,110.244 22.363,113.349 23.884,115.658C23.979,115.802 25.815,118.582 31.165,126.286L7.224,126.286C4.608,126.286 2.272,128.198 2.024,130.803C1.739,133.79 4.08,136.303 7.009,136.303L29.778,136.303C24.367,141.968 17.367,148.438 11.161,152.917C9.162,154.36 8.552,157.064 9.791,159.196L9.884,159.356C11.392,161.953 14.774,162.668 17.175,160.922C26.669,154.018 37.474,143.277 43.189,136.303L55.892,136.303C61.557,136.303 67.161,137.483 72.344,139.769C86.778,146.133 95.428,161.114 93.722,176.797C93.113,182.395 91.38,187.813 88.626,192.726L78.702,210.426C62.486,212.68 47.446,222.239 46.78,222.667C44.453,224.163 43.822,227.234 45.274,229.588C47.157,232.642 50.848,231.909 52.195,231.094C52.976,230.622 61.302,225.303 72.162,222.092L70.216,225.673C68.896,228.053 69.716,231.052 72.063,232.43C74.488,233.854 77.61,233.005 78.98,230.549L86.195,217.543L97.193,197.926C99.98,192.955 103.803,188.639 108.401,185.273C121.13,175.954 138.429,175.954 151.158,185.273C156.472,189.163 160.791,194.253 163.765,200.128L179.077,230.379C180.329,232.846 183.344,233.83 185.81,232.578C188.276,231.326 189.261,228.312 188.009,225.845L179.139,208.262C186.313,209.871 196.112,213.015 203.305,218.706C205.579,220.505 208.848,219.635 210.345,217.931C212.17,215.852 211.729,212.62 209.57,210.891C197.507,201.22 180.188,197.969 173.438,197.029L169.612,189.492C167.598,185.523 166.319,181.222 165.837,176.798C164.131,161.115 172.78,146.134 187.215,139.77C192.399,137.484 198.002,136.304 203.668,136.304L222.626,136.304C231.856,144.643 244.636,152.637 250.534,155.945C252.904,157.274 256.104,156.161 257.348,154.009C258.733,151.614 257.829,148.542 255.413,147.195ZM113.085,145.207C103.865,145.207 96.39,138.978 96.39,131.295C96.39,123.612 103.864,117.383 113.085,117.383C122.305,117.383 129.78,123.612 129.78,131.295C129.78,138.978 122.305,145.207 113.085,145.207Z" style="fill:rgb(229,242,13);fill-rule:nonzero;"/>
                        </g>
                        <g transform="matrix(-0.603456,0.0311756,-0.0311756,-0.603456,400.337,641.375)">
                            <path d="M255.413,147.195C250.369,144.383 240.01,137.929 231.775,130.997C240.19,125.561 249.818,120.508 251.853,119.605C254.381,118.483 255.521,115.524 254.4,112.996C253.277,110.467 250.319,109.326 247.791,110.449C244.777,111.787 230.552,119.316 220.896,126.286L203.68,126.286C198.011,126.286 192.404,125.105 187.217,122.818C172.782,116.453 164.132,101.472 165.838,85.788C166.464,80.028 168.321,74.47 171.282,69.49L176.986,59.896C191.02,58.026 204.546,52.827 216.206,44.791C218.393,43.284 219.27,40.353 217.957,38.043C216.481,35.447 213.137,34.729 210.74,36.392C204.74,40.557 195.606,45.612 183.788,48.456L192.241,34.239C193.578,31.991 193.132,29.005 191.023,27.457C188.604,25.682 185.244,26.409 183.745,28.928L162.201,65.161C159.375,69.914 155.619,74.047 151.157,77.313C138.428,86.631 121.129,86.631 108.4,77.313C103.79,73.938 99.954,69.616 97.152,64.636L86.467,45.651C88.342,34.01 85.874,13.511 83.586,5.675C82.83,3.088 80.2,1.388 77.577,2.008C74.742,2.678 73.098,5.583 73.926,8.33C75.908,14.904 77.669,30.973 76.942,40.868C69.47,38.762 62.201,35.662 57.778,32.644C55.648,31.191 52.703,31.407 51.009,33.351C49.012,35.644 49.492,39.092 51.922,40.774C57.922,44.928 71.12,49.873 78.263,51.498L88.625,69.909C91.38,74.803 93.113,80.206 93.721,85.789C95.427,101.472 86.777,116.454 72.342,122.819C67.155,125.106 61.548,126.287 55.879,126.287L43.376,126.287C34.993,114.301 32.277,110.191 32.25,110.149C30.727,107.84 27.622,107.2 25.312,108.722C23.002,110.244 22.363,113.349 23.884,115.658C23.979,115.802 25.815,118.582 31.165,126.286L7.224,126.286C4.608,126.286 2.272,128.198 2.024,130.803C1.739,133.79 4.08,136.303 7.009,136.303L29.778,136.303C24.367,141.968 17.367,148.438 11.161,152.917C9.162,154.36 8.552,157.064 9.791,159.196L9.884,159.356C11.392,161.953 14.774,162.668 17.175,160.922C26.669,154.018 37.474,143.277 43.189,136.303L55.892,136.303C61.557,136.303 67.161,137.483 72.344,139.769C86.778,146.133 95.428,161.114 93.722,176.797C93.113,182.395 91.38,187.813 88.626,192.726L78.702,210.426C62.486,212.68 47.446,222.239 46.78,222.667C44.453,224.163 43.822,227.234 45.274,229.588C47.157,232.642 50.848,231.909 52.195,231.094C52.976,230.622 61.302,225.303 72.162,222.092L70.216,225.673C68.896,228.053 69.716,231.052 72.063,232.43C74.488,233.854 77.61,233.005 78.98,230.549L86.195,217.543L97.193,197.926C99.98,192.955 103.803,188.639 108.401,185.273C121.13,175.954 138.429,175.954 151.158,185.273C156.472,189.163 160.791,194.253 163.765,200.128L179.077,230.379C180.329,232.846 183.344,233.83 185.81,232.578C188.276,231.326 189.261,228.312 188.009,225.845L179.139,208.262C186.313,209.871 196.112,213.015 203.305,218.706C205.579,220.505 208.848,219.635 210.345,217.931C212.17,215.852 211.729,212.62 209.57,210.891C197.507,201.22 180.188,197.969 173.438,197.029L169.612,189.492C167.598,185.523 166.319,181.222 165.837,176.798C164.131,161.115 172.78,146.134 187.215,139.77C192.399,137.484 198.002,136.304 203.668,136.304L222.626,136.304C231.856,144.643 244.636,152.637 250.534,155.945C252.904,157.274 256.104,156.161 257.348,154.009C258.733,151.614 257.829,148.542 255.413,147.195ZM113.085,145.207C103.865,145.207 96.39,138.978 96.39,131.295C96.39,123.612 103.864,117.383 113.085,117.383C122.305,117.383 129.78,123.612 129.78,131.295C129.78,138.978 122.305,145.207 113.085,145.207Z" style="fill:rgb(255,0,0);fill-rule:nonzero;"/>
                        </g>
                    </g>
                </g>
            </g>
            <g transform="matrix(0.999964,0,0,0.999964,-209.326,-58.8327)">
                <path d="M392.824,570.468C458.195,531.136 502.791,490.16 452.098,516.004C429.641,527.453 411.341,540.073 390.333,558.597L372,574.762L372,580L374.491,580C375.861,580 384.111,575.711 392.824,570.468Z"/>
            </g>
            <g transform="matrix(0.999964,0,0,0.999964,-209.326,-58.8327)">
                <path d="M863.801,593.203L868,591.739L868,589.452C868,585.994 861.598,580.578 852.667,576.48L844.667,572.809L833.062,572.244C826.68,571.934 819.93,572.063 818.062,572.532L814.667,573.384L814.667,575.958C814.667,585.645 849.953,598.03 863.801,593.203Z" style="fill:rgb(128,128,128);"/>
            </g>
            <g transform="matrix(0.999964,0,0,0.999964,-209.326,-58.8327)">
                <path d="M591.14,471.947C571.848,468.129 556.099,451.602 556.029,435.102L556,428.205L559.431,424.127L562.861,420.05L568.38,418.564L573.898,417.079L581.162,418.537C593.782,421.072 604.699,429.626 610.994,441.912L612.999,445.825L608.864,448.611C606.59,450.143 603.366,453.421 601.698,455.896L598.667,460.394L598.667,466.864C598.667,470.422 598.217,473.268 597.667,473.187C597.117,473.107 594.18,472.549 591.14,471.947Z"/>
            </g>
            <g transform="matrix(0.999964,0,0,0.999964,-209.326,-58.8327)">
                <path d="M726.667,393.402C726.667,386.351 738.94,371.971 749.607,366.525L755.333,363.6L764.1,362.971L772.867,362.342L780.137,364.455L787.407,366.569L795.333,375.047L792,374.068C774.034,368.792 748.915,375.31 732.906,389.401C729.474,392.422 726.667,394.222 726.667,393.402Z"/>
            </g>
            <g transform="matrix(0.999964,0,0,0.999964,-209.326,-58.8327)">
                <path d="M777.975,460.853C771.791,458.09 765.643,450.141 763.206,441.761L761.008,434.2L761.74,427.109C762.674,418.062 766.414,412.826 774.017,409.923L780,407.638L791.791,412.141L795.459,416.95C800.6,423.69 802.541,429.953 802.603,440L802.657,448.667L800.059,452.928C796.864,458.166 792.78,460.901 786.667,461.894L782,462.652L777.975,460.853Z"/>
            </g>
            <g transform="matrix(0.999964,0,0,0.999964,-209.326,-58.8327)">
                <path d="M824.476,864.011C820.212,862.291 817.333,857.359 817.333,851.778L817.333,846.815L823.333,839.84L832.444,839.582L835.555,843.198L838.667,846.815L838.667,857.538L834.769,861.436C830.681,865.524 829.165,865.903 824.476,864.011ZM817.436,799.215L813.333,795.763L813.333,790.657C813.333,783.679 814.35,781.566 818.817,779.256L822.644,777.277L826.01,778.121C830.727,779.305 834.667,784.84 834.667,790.282L834.667,794.872L830.769,798.769C825.966,803.572 822.742,803.68 817.436,799.215Z"/>
            </g>
        </g>
    </g>
</svg>
